# MagicaVoxel @ Ephtracy

# group
o 

# material
mtllib BlueTubularCoralSmall-0.mtl
usemtl palette

# normals
vn -1 0 0
vn 1 0 0
vn 0 0 1
vn 0 0 -1
vn 0 -1 0
vn 0 1 0

# texcoords
vt 0.826172 0.5
vt 0.830078 0.5
vt 0.833984 0.5
vt 0.837891 0.5

# verts
v -0.7 0.3 -0.4
v -0.7 0.3 -0.6
v -0.7 0.4 -0.4
v -0.7 0.4 -0.6
v -0.6 0.1 -0.4
v -0.6 0.1 -0.6
v -0.6 0.2 -0.4
v -0.6 0.2 -0.6
v -0.6 0.3 -0.3
v -0.6 0.3 -0.4
v -0.6 0.3 -0.6
v -0.6 0.3 -0.7
v -0.6 0.4 -0.3
v -0.6 0.4 -0.4
v -0.6 0.4 -0.6
v -0.6 0.4 -0.7
v -0.5 0 -0.4
v -0.5 0 -0.6
v -0.5 0.1 -0.3
v -0.5 0.1 -0.4
v -0.5 0.1 -0.6
v -0.5 0.1 -0.7
v -0.5 0.2 -0.3
v -0.5 0.2 -0.4
v -0.5 0.2 -0.6
v -0.5 0.2 -0.7
v -0.5 0.3 -0.3
v -0.5 0.3 -0.4
v -0.5 0.3 -0.6
v -0.5 0.3 -0.7
v -0.5 0.3 -0.8
v -0.5 0.4 -0.7
v -0.5 0.4 -0.8
v -0.3 0.3 -0.6
v -0.3 0.3 -0.7
v -0.3 0.4 -0.6
v -0.3 0.4 -0.7
v -0.6 0.3 -0.4
v -0.6 0.3 -0.6
v -0.6 0.4 -0.4
v -0.6 0.4 -0.6
v -0.5 0.2 -0.4
v -0.5 0.2 -0.6
v -0.5 0.3 -0.3
v -0.5 0.3 -0.4
v -0.5 0.3 -0.6
v -0.5 0.3 -0.7
v -0.5 0.4 -0.3
v -0.5 0.4 -0.4
v -0.5 0.4 -0.6
v -0.5 0.4 -0.7
v -0.4 0.1 -0.3
v -0.4 0.1 -0.4
v -0.4 0.1 -0.5
v -0.4 0.2 -0.3
v -0.4 0.2 -0.4
v -0.4 0.2 -0.5
v -0.4 0.3 -0.3
v -0.4 0.3 -0.4
v -0.3 0 -0.4
v -0.3 0 -0.6
v -0.3 0.1 -0.4
v -0.3 0.1 -0.5
v -0.3 0.1 -0.6
v -0.3 0.1 -0.7
v -0.3 0.2 -0.5
v -0.3 0.2 -0.6
v -0.3 0.2 -0.7
v -0.3 0.3 -0.6
v -0.3 0.3 -0.7
v -0.3 0.3 -0.8
v -0.3 0.4 -0.7
v -0.3 0.4 -0.8
v -0.2 0.3 -0.6
v -0.2 0.3 -0.7
v -0.2 0.4 -0.6
v -0.2 0.4 -0.7
v -0.6 0.3 -0.3
v -0.6 0.4 -0.3
v -0.5 0.1 -0.3
v -0.5 0.2 -0.3
v -0.5 0.3 -0.3
v -0.5 0.4 -0.3
v -0.4 0.1 -0.3
v -0.4 0.2 -0.3
v -0.4 0.3 -0.3
v -0.7 0.3 -0.4
v -0.7 0.4 -0.4
v -0.6 0.1 -0.4
v -0.6 0.2 -0.4
v -0.6 0.3 -0.4
v -0.6 0.4 -0.4
v -0.5 0 -0.4
v -0.5 0.1 -0.4
v -0.5 0.2 -0.4
v -0.5 0.3 -0.4
v -0.4 0.1 -0.4
v -0.3 0 -0.4
v -0.3 0.1 -0.4
v -0.4 0.1 -0.5
v -0.4 0.2 -0.5
v -0.3 0.1 -0.5
v -0.3 0.2 -0.5
v -0.6 0.3 -0.6
v -0.6 0.4 -0.6
v -0.5 0.2 -0.6
v -0.5 0.3 -0.6
v -0.5 0.4 -0.6
v -0.3 0.2 -0.6
v -0.3 0.3 -0.6
v -0.3 0.4 -0.6
v -0.2 0.3 -0.6
v -0.2 0.4 -0.6
v -0.5 0.3 -0.7
v -0.5 0.4 -0.7
v -0.3 0.3 -0.7
v -0.3 0.4 -0.7
v -0.6 0.3 -0.4
v -0.6 0.4 -0.4
v -0.5 0.2 -0.4
v -0.5 0.3 -0.4
v -0.5 0.4 -0.4
v -0.4 0.2 -0.4
v -0.4 0.3 -0.4
v -0.7 0.3 -0.6
v -0.7 0.4 -0.6
v -0.6 0.1 -0.6
v -0.6 0.2 -0.6
v -0.6 0.3 -0.6
v -0.6 0.4 -0.6
v -0.5 0 -0.6
v -0.5 0.1 -0.6
v -0.5 0.2 -0.6
v -0.5 0.3 -0.6
v -0.3 0 -0.6
v -0.3 0.1 -0.6
v -0.6 0.3 -0.7
v -0.6 0.4 -0.7
v -0.5 0.1 -0.7
v -0.5 0.2 -0.7
v -0.5 0.3 -0.7
v -0.5 0.4 -0.7
v -0.3 0.1 -0.7
v -0.3 0.2 -0.7
v -0.3 0.3 -0.7
v -0.3 0.4 -0.7
v -0.2 0.3 -0.7
v -0.2 0.4 -0.7
v -0.5 0.3 -0.8
v -0.5 0.4 -0.8
v -0.3 0.3 -0.8
v -0.3 0.4 -0.8
v -0.5 0 -0.4
v -0.3 0 -0.4
v -0.5 0 -0.6
v -0.3 0 -0.6
v -0.5 0.1 -0.3
v -0.4 0.1 -0.3
v -0.6 0.1 -0.4
v -0.5 0.1 -0.4
v -0.4 0.1 -0.4
v -0.6 0.1 -0.6
v -0.5 0.1 -0.6
v -0.3 0.1 -0.6
v -0.5 0.1 -0.7
v -0.3 0.1 -0.7
v -0.6 0.3 -0.3
v -0.5 0.3 -0.3
v -0.7 0.3 -0.4
v -0.6 0.3 -0.4
v -0.5 0.3 -0.4
v -0.7 0.3 -0.6
v -0.6 0.3 -0.6
v -0.5 0.3 -0.6
v -0.3 0.3 -0.6
v -0.2 0.3 -0.6
v -0.6 0.3 -0.7
v -0.5 0.3 -0.7
v -0.3 0.3 -0.7
v -0.2 0.3 -0.7
v -0.5 0.3 -0.8
v -0.3 0.3 -0.8
v -0.4 0.1 -0.4
v -0.3 0.1 -0.4
v -0.4 0.1 -0.5
v -0.3 0.1 -0.5
v -0.5 0.2 -0.4
v -0.4 0.2 -0.4
v -0.4 0.2 -0.5
v -0.3 0.2 -0.5
v -0.5 0.2 -0.6
v -0.3 0.2 -0.6
v -0.5 0.3 -0.3
v -0.4 0.3 -0.3
v -0.6 0.3 -0.4
v -0.5 0.3 -0.4
v -0.4 0.3 -0.4
v -0.6 0.3 -0.6
v -0.5 0.3 -0.6
v -0.3 0.3 -0.6
v -0.5 0.3 -0.7
v -0.3 0.3 -0.7
v -0.6 0.4 -0.3
v -0.5 0.4 -0.3
v -0.7 0.4 -0.4
v -0.6 0.4 -0.4
v -0.5 0.4 -0.4
v -0.7 0.4 -0.6
v -0.6 0.4 -0.6
v -0.5 0.4 -0.6
v -0.3 0.4 -0.6
v -0.2 0.4 -0.6
v -0.6 0.4 -0.7
v -0.5 0.4 -0.7
v -0.3 0.4 -0.7
v -0.2 0.4 -0.7
v -0.5 0.4 -0.8
v -0.3 0.4 -0.8

# faces
f 3/1/1 2/1/1 1/1/1
f 4/1/1 2/1/1 3/1/1
f 7/3/1 6/3/1 5/3/1
f 8/3/1 6/3/1 7/3/1
f 10/2/1 8/2/1 7/2/1
f 11/2/1 8/2/1 10/2/1
f 13/1/1 10/1/1 9/1/1
f 14/1/1 10/1/1 13/1/1
f 15/1/1 12/1/1 11/1/1
f 16/1/1 12/1/1 15/1/1
f 20/4/1 18/4/1 17/4/1
f 21/4/1 18/4/1 20/4/1
f 23/3/1 20/3/1 19/3/1
f 24/3/1 20/3/1 23/3/1
f 25/3/1 22/3/1 21/3/1
f 26/3/1 22/3/1 25/3/1
f 27/2/1 24/2/1 23/2/1
f 28/2/1 24/2/1 27/2/1
f 29/2/1 26/2/1 25/2/1
f 30/2/1 26/2/1 29/2/1
f 32/1/1 31/1/1 30/1/1
f 33/1/1 31/1/1 32/1/1
f 36/1/1 35/1/1 34/1/1
f 37/1/1 35/1/1 36/1/1
f 38/1/2 39/1/2 40/1/2
f 40/1/2 39/1/2 41/1/2
f 42/2/2 43/2/2 45/2/2
f 45/2/2 43/2/2 46/2/2
f 44/1/2 45/1/2 48/1/2
f 48/1/2 45/1/2 49/1/2
f 46/1/2 47/1/2 50/1/2
f 50/1/2 47/1/2 51/1/2
f 52/3/2 53/3/2 55/3/2
f 53/4/2 54/4/2 56/4/2
f 55/3/2 53/3/2 56/3/2
f 56/4/2 54/4/2 57/4/2
f 55/2/2 56/2/2 58/2/2
f 58/2/2 56/2/2 59/2/2
f 60/4/2 61/4/2 62/4/2
f 62/4/2 61/4/2 63/4/2
f 63/4/2 61/4/2 64/4/2
f 63/4/2 64/4/2 66/4/2
f 64/3/2 65/3/2 67/3/2
f 66/4/2 64/4/2 67/4/2
f 67/3/2 65/3/2 68/3/2
f 67/2/2 68/2/2 69/2/2
f 69/2/2 68/2/2 70/2/2
f 70/1/2 71/1/2 72/1/2
f 72/1/2 71/1/2 73/1/2
f 74/1/2 75/1/2 76/1/2
f 76/1/2 75/1/2 77/1/2
f 82/1/3 79/1/3 78/1/3
f 83/1/3 79/1/3 82/1/3
f 84/3/3 81/3/3 80/3/3
f 85/2/3 82/2/3 81/2/3
f 85/3/3 81/3/3 84/3/3
f 86/2/3 82/2/3 85/2/3
f 91/1/3 88/1/3 87/1/3
f 92/1/3 88/1/3 91/1/3
f 94/3/3 90/3/3 89/3/3
f 95/2/3 91/2/3 90/2/3
f 95/3/3 90/3/3 94/3/3
f 96/2/3 91/2/3 95/2/3
f 97/4/3 94/4/3 93/4/3
f 98/4/3 97/4/3 93/4/3
f 99/4/3 97/4/3 98/4/3
f 102/4/3 101/4/3 100/4/3
f 103/4/3 101/4/3 102/4/3
f 107/1/3 105/1/3 104/1/3
f 108/1/3 105/1/3 107/1/3
f 109/2/3 107/2/3 106/2/3
f 110/2/3 107/2/3 109/2/3
f 112/1/3 111/1/3 110/1/3
f 113/1/3 111/1/3 112/1/3
f 116/1/3 115/1/3 114/1/3
f 117/1/3 115/1/3 116/1/3
f 118/1/4 119/1/4 121/1/4
f 121/1/4 119/1/4 122/1/4
f 120/2/4 121/2/4 123/2/4
f 123/2/4 121/2/4 124/2/4
f 125/1/4 126/1/4 129/1/4
f 129/1/4 126/1/4 130/1/4
f 127/3/4 128/3/4 132/3/4
f 128/2/4 129/2/4 133/2/4
f 132/3/4 128/3/4 133/3/4
f 133/2/4 129/2/4 134/2/4
f 131/4/4 132/4/4 135/4/4
f 135/4/4 132/4/4 136/4/4
f 137/1/4 138/1/4 141/1/4
f 141/1/4 138/1/4 142/1/4
f 139/3/4 140/3/4 143/3/4
f 140/2/4 141/2/4 144/2/4
f 143/3/4 140/3/4 144/3/4
f 144/2/4 141/2/4 145/2/4
f 145/1/4 146/1/4 147/1/4
f 147/1/4 146/1/4 148/1/4
f 149/1/4 150/1/4 151/1/4
f 151/1/4 150/1/4 152/1/4
f 155/4/5 154/4/5 153/4/5
f 156/4/5 154/4/5 155/4/5
f 160/3/5 158/3/5 157/3/5
f 161/3/5 158/3/5 160/3/5
f 162/3/5 160/3/5 159/3/5
f 163/3/5 160/3/5 162/3/5
f 165/3/5 164/3/5 163/3/5
f 166/3/5 164/3/5 165/3/5
f 170/1/5 168/1/5 167/1/5
f 171/1/5 168/1/5 170/1/5
f 172/1/5 170/1/5 169/1/5
f 173/1/5 170/1/5 172/1/5
f 177/1/5 174/1/5 173/1/5
f 178/1/5 174/1/5 177/1/5
f 179/1/5 176/1/5 175/1/5
f 180/1/5 176/1/5 179/1/5
f 181/1/5 179/1/5 178/1/5
f 182/1/5 179/1/5 181/1/5
f 183/4/6 184/4/6 185/4/6
f 185/4/6 184/4/6 186/4/6
f 187/4/6 188/4/6 189/4/6
f 187/4/6 189/4/6 191/4/6
f 189/4/6 190/4/6 191/4/6
f 191/4/6 190/4/6 192/4/6
f 193/2/6 194/2/6 196/2/6
f 196/2/6 194/2/6 197/2/6
f 195/2/6 196/2/6 198/2/6
f 198/2/6 196/2/6 199/2/6
f 199/2/6 200/2/6 201/2/6
f 201/2/6 200/2/6 202/2/6
f 203/1/6 204/1/6 206/1/6
f 206/1/6 204/1/6 207/1/6
f 205/1/6 206/1/6 208/1/6
f 208/1/6 206/1/6 209/1/6
f 209/1/6 210/1/6 213/1/6
f 213/1/6 210/1/6 214/1/6
f 211/1/6 212/1/6 215/1/6
f 215/1/6 212/1/6 216/1/6
f 214/1/6 215/1/6 217/1/6
f 217/1/6 215/1/6 218/1/6
