# MagicaVoxel @ Ephtracy

# group
o 

# material
mtllib FollowerAnglerEnemy.mtl
usemtl palette

# normals
vn -1 0 0
vn 1 0 0
vn 0 0 1
vn 0 0 -1
vn 0 -1 0
vn 0 1 0

# texcoords
vt 0.630859 0.5
vt 0.646484 0.5
vt 0.654297 0.5
vt 0.677734 0.5
vt 0.712891 0.5
vt 0.716797 0.5
vt 0.744141 0.5
vt 0.771484 0.5
vt 0.794922 0.5
vt 0.896484 0.5
vt 0.904297 0.5
vt 0.908203 0.5
vt 0.912109 0.5

# verts
v -0.4 0.3 0.3
v -0.4 0.3 0.1
v -0.4 0.4 0.2
v -0.4 0.4 0.1
v -0.4 0.5 0.3
v -0.4 0.5 0.2
v -0.3 0.1 0.4
v -0.3 0.1 0.1
v -0.3 0.2 0.4
v -0.3 0.2 0.1
v -0.3 0.3 0.3
v -0.3 0.3 0.1
v -0.3 0.3 0
v -0.3 0.4 0.2
v -0.3 0.4 0.1
v -0.3 0.4 0
v -0.3 0.5 0.4
v -0.3 0.5 0.3
v -0.3 0.5 0.2
v -0.3 0.5 0.1
v -0.3 0.5 0
v -0.3 0.6 0.5
v -0.3 0.6 0.4
v -0.3 0.6 0.3
v -0.3 0.6 0.2
v -0.3 0.6 0.1
v -0.3 0.7 0.5
v -0.3 0.7 0.4
v -0.3 0.7 0.3
v -0.3 0.7 0.2
v -0.2 0 0.3
v -0.2 0 0.2
v -0.2 0.1 0.6
v -0.2 0.1 0.4
v -0.2 0.1 0.3
v -0.2 0.1 0.2
v -0.2 0.1 0.1
v -0.2 0.1 0
v -0.2 0.2 0.6
v -0.2 0.2 0.4
v -0.2 0.2 0.1
v -0.2 0.2 0
v -0.2 0.2 -0.1
v -0.2 0.3 0.6
v -0.2 0.3 0.5
v -0.2 0.3 0.4
v -0.2 0.3 0.1
v -0.2 0.3 0
v -0.2 0.4 0.6
v -0.2 0.4 0.5
v -0.2 0.4 0.4
v -0.2 0.4 0
v -0.2 0.4 -0.1
v -0.2 0.5 0.6
v -0.2 0.5 0.4
v -0.2 0.5 0.1
v -0.2 0.5 0
v -0.2 0.5 -0.1
v -0.2 0.6 0.6
v -0.2 0.6 0.5
v -0.2 0.6 0.4
v -0.2 0.6 0.1
v -0.2 0.6 0
v -0.1 0 0.4
v -0.1 0 0.3
v -0.1 0 0.2
v -0.1 0 0.1
v -0.1 0.1 0.4
v -0.1 0.1 0.3
v -0.1 0.1 0.2
v -0.1 0.1 0.1
v -0.1 0.1 -0.1
v -0.1 0.1 -0.2
v -0.1 0.1 -0.3
v -0.1 0.1 -0.4
v -0.1 0.2 -0.1
v -0.1 0.2 -0.2
v -0.1 0.2 -0.3
v -0.1 0.2 -0.4
v -0.1 0.3 -0.1
v -0.1 0.3 -0.2
v -0.1 0.3 -0.3
v -0.1 0.4 -0.1
v -0.1 0.4 -0.2
v -0.1 0.4 -0.3
v -0.1 0.5 -0.1
v -0.1 0.5 -0.2
v -0.1 0.5 -0.3
v -0.1 0.5 -0.4
v -0.1 0.6 -0.1
v -0.1 0.6 -0.2
v -0.1 0.6 -0.3
v -0.1 0.6 -0.4
v -0.1 0.7 0.4
v -0.1 0.7 0.3
v -0.1 0.8 0.9
v -0.1 0.8 0.8
v -0.1 0.8 0.4
v -0.1 0.8 0.3
v -0.1 0.9 0.9
v -0.1 0.9 0.8
v -0.1 1 0.9
v -0.1 1 0.8
v -0.1 1 0.7
v -0.1 1.1 0.8
v -0.1 1.1 0.7
v 0 0.8 0.4
v 0 0.8 0.3
v 0 0.9 0.5
v 0 0.9 0.4
v 0 0.9 0.3
v 0 1 0.7
v 0 1 0.6
v 0 1 0.5
v 0 1 0.4
v 0 1.1 0.7
v 0 1.1 0.6
v 0 1.1 0.5
v 0.1 0.3 0.5
v 0.1 0.3 0.4
v 0.1 0.4 0.5
v 0.1 0.4 0.4
v 0.2 0.3 0.1
v 0.2 0.3 0
v 0.2 0.4 0.1
v 0.2 0.4 0
v 0.2 0.6 0.5
v 0.2 0.6 0.4
v 0.2 0.7 0.5
v 0.2 0.7 0.4
v -0.2 0.6 0.5
v -0.2 0.6 0.4
v -0.2 0.7 0.5
v -0.2 0.7 0.4
v -0.1 0.3 0.5
v -0.1 0.3 0.4
v -0.1 0.3 0.1
v -0.1 0.3 0
v -0.1 0.4 0.5
v -0.1 0.4 0.4
v -0.1 0.4 0.1
v -0.1 0.4 0
v 0 0.8 0.9
v 0 0.8 0.8
v 0 0.9 0.9
v 0 0.9 0.8
v 0 1 0.9
v 0 1 0.8
v 0 1 0.7
v 0 1.1 0.8
v 0 1.1 0.7
v 0.1 0 0.4
v 0.1 0 0.3
v 0.1 0 0.2
v 0.1 0 0.1
v 0.1 0.1 0.4
v 0.1 0.1 0.3
v 0.1 0.1 0.2
v 0.1 0.1 0.1
v 0.1 0.1 -0.1
v 0.1 0.1 -0.2
v 0.1 0.1 -0.3
v 0.1 0.1 -0.4
v 0.1 0.2 -0.1
v 0.1 0.2 -0.2
v 0.1 0.2 -0.3
v 0.1 0.2 -0.4
v 0.1 0.3 -0.1
v 0.1 0.3 -0.2
v 0.1 0.3 -0.3
v 0.1 0.4 -0.1
v 0.1 0.4 -0.2
v 0.1 0.4 -0.3
v 0.1 0.5 -0.1
v 0.1 0.5 -0.2
v 0.1 0.5 -0.3
v 0.1 0.5 -0.4
v 0.1 0.6 -0.1
v 0.1 0.6 -0.2
v 0.1 0.6 -0.3
v 0.1 0.6 -0.4
v 0.1 0.7 0.4
v 0.1 0.7 0.3
v 0.1 0.9 0.5
v 0.1 0.9 0.4
v 0.1 0.9 0.3
v 0.1 1 0.7
v 0.1 1 0.6
v 0.1 1 0.5
v 0.1 1 0.4
v 0.1 1.1 0.7
v 0.1 1.1 0.6
v 0.1 1.1 0.5
v 0.2 0 0.3
v 0.2 0 0.2
v 0.2 0.1 0.6
v 0.2 0.1 0.4
v 0.2 0.1 0.3
v 0.2 0.1 0.2
v 0.2 0.1 0.1
v 0.2 0.1 0
v 0.2 0.2 0.6
v 0.2 0.2 0.4
v 0.2 0.2 0.1
v 0.2 0.2 0
v 0.2 0.2 -0.1
v 0.2 0.3 0.6
v 0.2 0.3 0.5
v 0.2 0.3 0.4
v 0.2 0.3 0.1
v 0.2 0.3 0
v 0.2 0.4 0.6
v 0.2 0.4 0.5
v 0.2 0.4 0.4
v 0.2 0.4 0
v 0.2 0.4 -0.1
v 0.2 0.5 0.6
v 0.2 0.5 0.4
v 0.2 0.5 0.1
v 0.2 0.5 0
v 0.2 0.5 -0.1
v 0.2 0.6 0.6
v 0.2 0.6 0.5
v 0.2 0.6 0.4
v 0.2 0.6 0.1
v 0.2 0.6 0
v 0.3 0.1 0.4
v 0.3 0.1 0.1
v 0.3 0.2 0.4
v 0.3 0.2 0.1
v 0.3 0.3 0.3
v 0.3 0.3 0.1
v 0.3 0.3 0
v 0.3 0.4 0.2
v 0.3 0.4 0.1
v 0.3 0.4 0
v 0.3 0.5 0.4
v 0.3 0.5 0.3
v 0.3 0.5 0.2
v 0.3 0.5 0.1
v 0.3 0.5 0
v 0.3 0.6 0.5
v 0.3 0.6 0.4
v 0.3 0.6 0.3
v 0.3 0.6 0.2
v 0.3 0.6 0.1
v 0.3 0.7 0.5
v 0.3 0.7 0.4
v 0.3 0.7 0.3
v 0.3 0.7 0.2
v 0.4 0.3 0.3
v 0.4 0.3 0.1
v 0.4 0.4 0.2
v 0.4 0.4 0.1
v 0.4 0.5 0.3
v 0.4 0.5 0.2
v -0.1 0.8 0.9
v -0.1 0.9 0.9
v -0.1 1 0.9
v 0 0.8 0.9
v 0 0.9 0.9
v 0 1 0.9
v -0.1 1 0.8
v -0.1 1.1 0.8
v 0 1 0.8
v 0 1.1 0.8
v 0 1 0.7
v 0 1.1 0.7
v 0.1 1 0.7
v 0.1 1.1 0.7
v -0.2 0.1 0.6
v -0.2 0.2 0.6
v -0.2 0.3 0.6
v -0.2 0.4 0.6
v -0.2 0.5 0.6
v -0.2 0.6 0.6
v -0.1 0.1 0.6
v -0.1 0.2 0.6
v -0.1 0.5 0.6
v -0.1 0.6 0.6
v 0.1 0.1 0.6
v 0.1 0.2 0.6
v 0.1 0.5 0.6
v 0.1 0.6 0.6
v 0.2 0.1 0.6
v 0.2 0.2 0.6
v 0.2 0.3 0.6
v 0.2 0.4 0.6
v 0.2 0.5 0.6
v 0.2 0.6 0.6
v -0.3 0.6 0.5
v -0.3 0.7 0.5
v -0.2 0.3 0.5
v -0.2 0.4 0.5
v -0.2 0.6 0.5
v -0.2 0.7 0.5
v -0.1 0.3 0.5
v -0.1 0.4 0.5
v 0 0.9 0.5
v 0 1 0.5
v 0.1 0.3 0.5
v 0.1 0.4 0.5
v 0.1 0.9 0.5
v 0.1 1 0.5
v 0.2 0.3 0.5
v 0.2 0.4 0.5
v 0.2 0.6 0.5
v 0.2 0.7 0.5
v 0.3 0.6 0.5
v 0.3 0.7 0.5
v -0.3 0.1 0.4
v -0.3 0.2 0.4
v -0.3 0.5 0.4
v -0.3 0.6 0.4
v -0.2 0.1 0.4
v -0.2 0.2 0.4
v -0.2 0.3 0.4
v -0.2 0.4 0.4
v -0.2 0.5 0.4
v -0.2 0.6 0.4
v -0.2 0.7 0.4
v -0.1 0 0.4
v -0.1 0.1 0.4
v -0.1 0.3 0.4
v -0.1 0.4 0.4
v -0.1 0.6 0.4
v -0.1 0.7 0.4
v -0.1 0.8 0.4
v 0 0.8 0.4
v 0 0.9 0.4
v 0.1 0 0.4
v 0.1 0.1 0.4
v 0.1 0.3 0.4
v 0.1 0.4 0.4
v 0.1 0.6 0.4
v 0.1 0.7 0.4
v 0.1 0.9 0.4
v 0.2 0.1 0.4
v 0.2 0.2 0.4
v 0.2 0.3 0.4
v 0.2 0.4 0.4
v 0.2 0.5 0.4
v 0.2 0.6 0.4
v 0.2 0.7 0.4
v 0.3 0.1 0.4
v 0.3 0.2 0.4
v 0.3 0.5 0.4
v 0.3 0.6 0.4
v -0.4 0.3 0.3
v -0.4 0.5 0.3
v -0.3 0.3 0.3
v -0.3 0.5 0.3
v -0.2 0 0.3
v -0.2 0.1 0.3
v -0.1 0 0.3
v -0.1 0.1 0.3
v 0.1 0 0.3
v 0.1 0.1 0.3
v 0.2 0 0.3
v 0.2 0.1 0.3
v 0.3 0.3 0.3
v 0.3 0.5 0.3
v 0.4 0.3 0.3
v 0.4 0.5 0.3
v -0.1 0.3 0
v -0.1 0.4 0
v 0.1 0.3 0
v 0.1 0.4 0
v 0.2 0.3 0
v 0.2 0.4 0
v -0.1 0.1 -0.1
v -0.1 0.2 -0.1
v -0.1 0.5 -0.1
v -0.1 0.6 -0.1
v 0.1 0.1 -0.1
v 0.1 0.2 -0.1
v 0.1 0.5 -0.1
v 0.1 0.6 -0.1
v -0.1 0.8 0.8
v -0.1 0.9 0.8
v -0.1 1 0.8
v 0 0.8 0.8
v 0 0.9 0.8
v 0 1 0.8
v -0.1 1 0.7
v -0.1 1.1 0.7
v 0 1 0.7
v 0 1.1 0.7
v 0 1 0.5
v 0 1.1 0.5
v 0.1 1 0.5
v 0.1 1.1 0.5
v 0 0.9 0.4
v 0 1 0.4
v 0.1 0.9 0.4
v 0.1 1 0.4
v -0.1 0.7 0.3
v -0.1 0.8 0.3
v 0 0.8 0.3
v 0 0.9 0.3
v 0.1 0.7 0.3
v 0.1 0.9 0.3
v -0.4 0.4 0.2
v -0.4 0.5 0.2
v -0.3 0.4 0.2
v -0.3 0.5 0.2
v -0.3 0.6 0.2
v -0.3 0.7 0.2
v -0.2 0 0.2
v -0.2 0.1 0.2
v -0.1 0 0.2
v -0.1 0.1 0.2
v 0.1 0 0.2
v 0.1 0.1 0.2
v 0.2 0 0.2
v 0.2 0.1 0.2
v 0.3 0.4 0.2
v 0.3 0.5 0.2
v 0.3 0.6 0.2
v 0.3 0.7 0.2
v 0.4 0.4 0.2
v 0.4 0.5 0.2
v -0.4 0.3 0.1
v -0.4 0.4 0.1
v -0.3 0.1 0.1
v -0.3 0.2 0.1
v -0.3 0.3 0.1
v -0.3 0.4 0.1
v -0.3 0.5 0.1
v -0.3 0.6 0.1
v -0.2 0.1 0.1
v -0.2 0.2 0.1
v -0.2 0.3 0.1
v -0.2 0.5 0.1
v -0.2 0.6 0.1
v -0.1 0 0.1
v -0.1 0.1 0.1
v -0.1 0.3 0.1
v -0.1 0.4 0.1
v 0.1 0 0.1
v 0.1 0.1 0.1
v 0.1 0.3 0.1
v 0.2 0.1 0.1
v 0.2 0.2 0.1
v 0.2 0.3 0.1
v 0.2 0.4 0.1
v 0.2 0.5 0.1
v 0.2 0.6 0.1
v 0.3 0.1 0.1
v 0.3 0.2 0.1
v 0.3 0.3 0.1
v 0.3 0.4 0.1
v 0.3 0.5 0.1
v 0.3 0.6 0.1
v 0.4 0.3 0.1
v 0.4 0.4 0.1
v -0.3 0.3 0
v -0.3 0.4 0
v -0.3 0.5 0
v -0.2 0.1 0
v -0.2 0.2 0
v -0.2 0.3 0
v -0.2 0.4 0
v -0.2 0.5 0
v -0.2 0.6 0
v 0.2 0.1 0
v 0.2 0.2 0
v 0.2 0.3 0
v 0.2 0.4 0
v 0.2 0.5 0
v 0.2 0.6 0
v 0.3 0.3 0
v 0.3 0.4 0
v 0.3 0.5 0
v -0.2 0.2 -0.1
v -0.2 0.4 -0.1
v -0.2 0.5 -0.1
v -0.1 0.2 -0.1
v -0.1 0.3 -0.1
v -0.1 0.4 -0.1
v -0.1 0.5 -0.1
v 0.1 0.2 -0.1
v 0.1 0.3 -0.1
v 0.1 0.4 -0.1
v 0.1 0.5 -0.1
v 0.2 0.2 -0.1
v 0.2 0.4 -0.1
v 0.2 0.5 -0.1
v -0.1 0.2 -0.3
v -0.1 0.3 -0.3
v -0.1 0.4 -0.3
v -0.1 0.5 -0.3
v 0.1 0.2 -0.3
v 0.1 0.3 -0.3
v 0.1 0.4 -0.3
v 0.1 0.5 -0.3
v -0.1 0.1 -0.4
v -0.1 0.2 -0.4
v -0.1 0.5 -0.4
v -0.1 0.6 -0.4
v 0.1 0.1 -0.4
v 0.1 0.2 -0.4
v 0.1 0.5 -0.4
v 0.1 0.6 -0.4
v -0.1 0 0.4
v 0.1 0 0.4
v -0.2 0 0.3
v -0.1 0 0.3
v 0.1 0 0.3
v 0.2 0 0.3
v -0.2 0 0.2
v -0.1 0 0.2
v 0.1 0 0.2
v 0.2 0 0.2
v -0.1 0 0.1
v 0.1 0 0.1
v -0.2 0.1 0.6
v -0.1 0.1 0.6
v 0.1 0.1 0.6
v 0.2 0.1 0.6
v -0.1 0.1 0.5
v 0.1 0.1 0.5
v -0.3 0.1 0.4
v -0.2 0.1 0.4
v -0.1 0.1 0.4
v 0.1 0.1 0.4
v 0.2 0.1 0.4
v 0.3 0.1 0.4
v -0.2 0.1 0.3
v -0.1 0.1 0.3
v 0.1 0.1 0.3
v 0.2 0.1 0.3
v -0.2 0.1 0.2
v -0.1 0.1 0.2
v 0.1 0.1 0.2
v 0.2 0.1 0.2
v -0.3 0.1 0.1
v -0.2 0.1 0.1
v -0.1 0.1 0.1
v 0.1 0.1 0.1
v 0.2 0.1 0.1
v 0.3 0.1 0.1
v -0.2 0.1 0
v 0.2 0.1 0
v -0.1 0.1 -0.1
v 0.1 0.1 -0.1
v -0.1 0.1 -0.2
v 0.1 0.1 -0.2
v -0.1 0.1 -0.3
v 0.1 0.1 -0.3
v -0.1 0.1 -0.4
v 0.1 0.1 -0.4
v -0.2 0.2 0
v 0.2 0.2 0
v -0.2 0.2 -0.1
v -0.1 0.2 -0.1
v 0.1 0.2 -0.1
v 0.2 0.2 -0.1
v -0.4 0.3 0.3
v -0.3 0.3 0.3
v 0.3 0.3 0.3
v 0.4 0.3 0.3
v -0.4 0.3 0.1
v -0.3 0.3 0.1
v -0.2 0.3 0.1
v 0.2 0.3 0.1
v 0.3 0.3 0.1
v 0.4 0.3 0.1
v -0.3 0.3 0
v -0.2 0.3 0
v 0.2 0.3 0
v 0.3 0.3 0
v -0.2 0.4 0.6
v 0.2 0.4 0.6
v -0.2 0.4 0.5
v -0.1 0.4 0.5
v 0.1 0.4 0.5
v 0.2 0.4 0.5
v -0.1 0.4 0.4
v 0.1 0.4 0.4
v -0.1 0.4 0.1
v 0.2 0.4 0.1
v -0.1 0.4 0
v 0.1 0.4 0
v 0.2 0.4 0
v -0.1 0.5 -0.3
v 0.1 0.5 -0.3
v -0.1 0.5 -0.4
v 0.1 0.5 -0.4
v -0.3 0.6 0.5
v -0.2 0.6 0.5
v 0.2 0.6 0.5
v 0.3 0.6 0.5
v -0.3 0.6 0.4
v -0.2 0.6 0.4
v 0.2 0.6 0.4
v 0.3 0.6 0.4
v -0.1 0.8 0.9
v 0 0.8 0.9
v -0.1 0.8 0.8
v 0 0.8 0.8
v 0 0.9 0.5
v 0.1 0.9 0.5
v 0 0.9 0.4
v 0.1 0.9 0.4
v -0.1 1 0.8
v 0 1 0.8
v -0.1 1 0.7
v 0 1 0.7
v 0.1 1 0.7
v 0 1 0.6
v 0.1 1 0.6
v 0 1 0.5
v 0.1 1 0.5
v -0.1 0.2 -0.3
v 0.1 0.2 -0.3
v -0.1 0.2 -0.4
v 0.1 0.2 -0.4
v -0.2 0.3 0.6
v 0.2 0.3 0.6
v -0.2 0.3 0.5
v -0.1 0.3 0.5
v 0.1 0.3 0.5
v 0.2 0.3 0.5
v -0.1 0.3 0.4
v 0.1 0.3 0.4
v -0.1 0.3 0.1
v 0.1 0.3 0.1
v 0.2 0.3 0.1
v -0.1 0.3 0
v 0.1 0.3 0
v 0.2 0.3 0
v -0.4 0.4 0.2
v -0.3 0.4 0.2
v 0.3 0.4 0.2
v 0.4 0.4 0.2
v -0.4 0.4 0.1
v -0.3 0.4 0.1
v 0.3 0.4 0.1
v 0.4 0.4 0.1
v -0.4 0.5 0.3
v -0.3 0.5 0.3
v 0.3 0.5 0.3
v 0.4 0.5 0.3
v -0.4 0.5 0.2
v -0.3 0.5 0.2
v 0.3 0.5 0.2
v 0.4 0.5 0.2
v -0.3 0.5 0.1
v -0.2 0.5 0.1
v 0.2 0.5 0.1
v 0.3 0.5 0.1
v -0.3 0.5 0
v -0.2 0.5 0
v 0.2 0.5 0
v 0.3 0.5 0
v -0.2 0.5 -0.1
v -0.1 0.5 -0.1
v 0.1 0.5 -0.1
v 0.2 0.5 -0.1
v -0.2 0.6 0.6
v -0.1 0.6 0.6
v 0.1 0.6 0.6
v 0.2 0.6 0.6
v -0.2 0.6 0.5
v -0.1 0.6 0.5
v 0.1 0.6 0.5
v 0.2 0.6 0.5
v -0.2 0.6 0.4
v -0.1 0.6 0.4
v 0.1 0.6 0.4
v 0.2 0.6 0.4
v -0.3 0.6 0.2
v 0.3 0.6 0.2
v -0.3 0.6 0.1
v -0.2 0.6 0.1
v 0.2 0.6 0.1
v 0.3 0.6 0.1
v -0.2 0.6 0
v 0.2 0.6 0
v -0.1 0.6 -0.1
v 0.1 0.6 -0.1
v -0.1 0.6 -0.2
v 0.1 0.6 -0.2
v -0.1 0.6 -0.3
v 0.1 0.6 -0.3
v -0.1 0.6 -0.4
v 0.1 0.6 -0.4
v -0.3 0.7 0.5
v -0.2 0.7 0.5
v 0.2 0.7 0.5
v 0.3 0.7 0.5
v -0.3 0.7 0.4
v -0.2 0.7 0.4
v -0.1 0.7 0.4
v 0.1 0.7 0.4
v 0.2 0.7 0.4
v 0.3 0.7 0.4
v -0.3 0.7 0.3
v -0.2 0.7 0.3
v -0.1 0.7 0.3
v 0.1 0.7 0.3
v 0.2 0.7 0.3
v 0.3 0.7 0.3
v -0.3 0.7 0.2
v 0.3 0.7 0.2
v -0.1 0.8 0.4
v 0 0.8 0.4
v -0.1 0.8 0.3
v 0 0.8 0.3
v 0 0.9 0.4
v 0.1 0.9 0.4
v 0 0.9 0.3
v 0.1 0.9 0.3
v -0.1 1 0.9
v 0 1 0.9
v -0.1 1 0.8
v 0 1 0.8
v 0 1 0.5
v 0.1 1 0.5
v 0 1 0.4
v 0.1 1 0.4
v -0.1 1.1 0.8
v 0 1.1 0.8
v -0.1 1.1 0.7
v 0 1.1 0.7
v 0.1 1.1 0.7
v 0 1.1 0.6
v 0.1 1.1 0.6
v 0 1.1 0.5
v 0.1 1.1 0.5

# faces
f 3/3/1 2/3/1 1/3/1
f 4/3/1 2/3/1 3/3/1
f 5/3/1 3/3/1 1/3/1
f 6/3/1 3/3/1 5/3/1
f 9/2/1 8/2/1 7/2/1
f 10/2/1 8/2/1 9/2/1
f 11/3/1 10/3/1 9/3/1
f 12/3/1 10/3/1 11/3/1
f 15/3/1 13/3/1 12/3/1
f 16/3/1 13/3/1 15/3/1
f 17/3/1 11/3/1 9/3/1
f 18/3/1 11/3/1 17/3/1
f 19/2/1 15/2/1 14/2/1
f 19/2/1 16/2/1 15/2/1
f 20/2/1 16/2/1 19/2/1
f 21/2/1 16/2/1 20/2/1
f 23/8/1 18/8/1 17/8/1
f 24/3/1 19/3/1 18/3/1
f 24/3/1 20/3/1 19/3/1
f 24/8/1 18/8/1 23/8/1
f 25/3/1 20/3/1 24/3/1
f 26/3/1 20/3/1 25/3/1
f 27/6/1 23/6/1 22/6/1
f 28/10/1 24/10/1 23/10/1
f 28/6/1 23/6/1 27/6/1
f 29/3/1 25/3/1 24/3/1
f 29/10/1 24/10/1 28/10/1
f 30/3/1 25/3/1 29/3/1
f 35/2/1 32/2/1 31/2/1
f 36/2/1 32/2/1 35/2/1
f 39/2/1 34/2/1 33/2/1
f 40/2/1 34/2/1 39/2/1
f 41/2/1 38/2/1 37/2/1
f 42/2/1 38/2/1 41/2/1
f 44/3/1 40/3/1 39/3/1
f 45/3/1 40/3/1 44/3/1
f 46/3/1 40/3/1 45/3/1
f 47/2/1 43/2/1 42/2/1
f 47/2/1 42/2/1 41/2/1
f 48/2/1 43/2/1 47/2/1
f 50/4/1 46/4/1 45/4/1
f 51/4/1 46/4/1 50/4/1
f 52/2/1 43/2/1 48/2/1
f 53/2/1 43/2/1 52/2/1
f 54/3/1 51/3/1 50/3/1
f 54/3/1 50/3/1 49/3/1
f 55/3/1 51/3/1 54/3/1
f 57/3/1 53/3/1 52/3/1
f 58/3/1 53/3/1 57/3/1
f 59/1/1 55/1/1 54/1/1
f 60/1/1 55/1/1 59/1/1
f 61/1/1 55/1/1 60/1/1
f 62/3/1 57/3/1 56/3/1
f 63/3/1 57/3/1 62/3/1
f 68/2/1 65/2/1 64/2/1
f 69/2/1 65/2/1 68/2/1
f 70/2/1 67/2/1 66/2/1
f 71/2/1 67/2/1 70/2/1
f 76/3/1 73/3/1 72/3/1
f 77/2/1 74/2/1 73/2/1
f 77/3/1 73/3/1 76/3/1
f 78/3/1 75/3/1 74/3/1
f 78/2/1 74/2/1 77/2/1
f 79/3/1 75/3/1 78/3/1
f 80/2/1 77/2/1 76/2/1
f 81/3/1 78/3/1 77/3/1
f 81/2/1 77/2/1 80/2/1
f 82/3/1 78/3/1 81/3/1
f 83/3/1 81/3/1 80/3/1
f 84/2/1 82/2/1 81/2/1
f 84/3/1 81/3/1 83/3/1
f 85/2/1 82/2/1 84/2/1
f 86/2/1 84/2/1 83/2/1
f 87/3/1 85/3/1 84/3/1
f 87/2/1 84/2/1 86/2/1
f 88/3/1 85/3/1 87/3/1
f 90/3/1 87/3/1 86/3/1
f 91/2/1 88/2/1 87/2/1
f 91/3/1 87/3/1 90/3/1
f 92/3/1 89/3/1 88/3/1
f 92/2/1 88/2/1 91/2/1
f 93/3/1 89/3/1 92/3/1
f 98/12/1 95/12/1 94/12/1
f 99/12/1 95/12/1 98/12/1
f 100/5/1 97/5/1 96/5/1
f 101/5/1 97/5/1 100/5/1
f 102/7/1 101/7/1 100/7/1
f 103/7/1 101/7/1 102/7/1
f 105/9/1 104/9/1 103/9/1
f 106/9/1 104/9/1 105/9/1
f 110/12/1 108/12/1 107/12/1
f 111/12/1 108/12/1 110/12/1
f 114/12/1 110/12/1 109/12/1
f 115/12/1 110/12/1 114/12/1
f 116/9/1 113/9/1 112/9/1
f 117/11/1 114/11/1 113/11/1
f 117/9/1 113/9/1 116/9/1
f 118/11/1 114/11/1 117/11/1
f 121/4/1 120/4/1 119/4/1
f 122/4/1 120/4/1 121/4/1
f 125/3/1 124/3/1 123/3/1
f 126/3/1 124/3/1 125/3/1
f 129/6/1 128/6/1 127/6/1
f 130/6/1 128/6/1 129/6/1
f 131/6/2 132/6/2 133/6/2
f 133/6/2 132/6/2 134/6/2
f 135/4/2 136/4/2 139/4/2
f 139/4/2 136/4/2 140/4/2
f 137/3/2 138/3/2 141/3/2
f 141/3/2 138/3/2 142/3/2
f 143/5/2 144/5/2 145/5/2
f 145/5/2 144/5/2 146/5/2
f 145/7/2 146/7/2 147/7/2
f 147/7/2 146/7/2 148/7/2
f 148/9/2 149/9/2 150/9/2
f 150/9/2 149/9/2 151/9/2
f 152/2/2 153/2/2 156/2/2
f 156/2/2 153/2/2 157/2/2
f 154/2/2 155/2/2 158/2/2
f 158/2/2 155/2/2 159/2/2
f 160/3/2 161/3/2 164/3/2
f 161/2/2 162/2/2 165/2/2
f 164/3/2 161/3/2 165/3/2
f 162/3/2 163/3/2 166/3/2
f 165/2/2 162/2/2 166/2/2
f 166/3/2 163/3/2 167/3/2
f 164/2/2 165/2/2 168/2/2
f 165/3/2 166/3/2 169/3/2
f 168/2/2 165/2/2 169/2/2
f 169/3/2 166/3/2 170/3/2
f 168/3/2 169/3/2 171/3/2
f 169/2/2 170/2/2 172/2/2
f 171/3/2 169/3/2 172/3/2
f 172/2/2 170/2/2 173/2/2
f 171/2/2 172/2/2 174/2/2
f 172/3/2 173/3/2 175/3/2
f 174/2/2 172/2/2 175/2/2
f 175/3/2 173/3/2 176/3/2
f 174/3/2 175/3/2 178/3/2
f 175/2/2 176/2/2 179/2/2
f 178/3/2 175/3/2 179/3/2
f 176/3/2 177/3/2 180/3/2
f 179/2/2 176/2/2 180/2/2
f 180/3/2 177/3/2 181/3/2
f 182/12/2 183/12/2 185/12/2
f 185/12/2 183/12/2 186/12/2
f 184/12/2 185/12/2 189/12/2
f 189/12/2 185/12/2 190/12/2
f 187/9/2 188/9/2 191/9/2
f 188/11/2 189/11/2 192/11/2
f 191/9/2 188/9/2 192/9/2
f 192/11/2 189/11/2 193/11/2
f 194/2/2 195/2/2 198/2/2
f 198/2/2 195/2/2 199/2/2
f 196/2/2 197/2/2 202/2/2
f 202/2/2 197/2/2 203/2/2
f 200/2/2 201/2/2 204/2/2
f 204/2/2 201/2/2 205/2/2
f 202/3/2 203/3/2 207/3/2
f 207/3/2 203/3/2 208/3/2
f 208/3/2 203/3/2 209/3/2
f 205/2/2 206/2/2 210/2/2
f 204/2/2 205/2/2 210/2/2
f 210/2/2 206/2/2 211/2/2
f 208/4/2 209/4/2 213/4/2
f 213/4/2 209/4/2 214/4/2
f 211/2/2 206/2/2 215/2/2
f 215/2/2 206/2/2 216/2/2
f 213/3/2 214/3/2 217/3/2
f 212/3/2 213/3/2 217/3/2
f 217/3/2 214/3/2 218/3/2
f 215/3/2 216/3/2 220/3/2
f 220/3/2 216/3/2 221/3/2
f 217/1/2 218/1/2 222/1/2
f 222/1/2 218/1/2 223/1/2
f 223/1/2 218/1/2 224/1/2
f 219/3/2 220/3/2 225/3/2
f 225/3/2 220/3/2 226/3/2
f 227/2/2 228/2/2 229/2/2
f 229/2/2 228/2/2 230/2/2
f 229/3/2 230/3/2 231/3/2
f 231/3/2 230/3/2 232/3/2
f 232/3/2 233/3/2 235/3/2
f 235/3/2 233/3/2 236/3/2
f 229/3/2 231/3/2 237/3/2
f 237/3/2 231/3/2 238/3/2
f 234/2/2 235/2/2 239/2/2
f 235/2/2 236/2/2 239/2/2
f 239/2/2 236/2/2 240/2/2
f 240/2/2 236/2/2 241/2/2
f 237/8/2 238/8/2 243/8/2
f 238/3/2 239/3/2 244/3/2
f 239/3/2 240/3/2 244/3/2
f 243/8/2 238/8/2 244/8/2
f 244/3/2 240/3/2 245/3/2
f 245/3/2 240/3/2 246/3/2
f 242/6/2 243/6/2 247/6/2
f 243/10/2 244/10/2 248/10/2
f 247/6/2 243/6/2 248/6/2
f 244/3/2 245/3/2 249/3/2
f 248/10/2 244/10/2 249/10/2
f 249/3/2 245/3/2 250/3/2
f 251/3/2 252/3/2 253/3/2
f 253/3/2 252/3/2 254/3/2
f 251/3/2 253/3/2 255/3/2
f 255/3/2 253/3/2 256/3/2
f 260/5/3 258/5/3 257/5/3
f 261/7/3 259/7/3 258/7/3
f 261/5/3 258/5/3 260/5/3
f 262/7/3 259/7/3 261/7/3
f 265/9/3 264/9/3 263/9/3
f 266/9/3 264/9/3 265/9/3
f 269/9/3 268/9/3 267/9/3
f 270/9/3 268/9/3 269/9/3
f 277/2/3 272/2/3 271/2/3
f 278/3/3 273/3/3 272/3/3
f 278/2/3 272/2/3 277/2/3
f 279/1/3 276/1/3 275/1/3
f 279/3/3 275/3/3 274/3/3
f 280/1/3 276/1/3 279/1/3
f 281/3/3 278/3/3 277/3/3
f 282/3/3 273/3/3 278/3/3
f 282/3/3 278/3/3 281/3/3
f 283/3/3 279/3/3 274/3/3
f 283/10/3 280/10/3 279/10/3
f 284/10/3 280/10/3 283/10/3
f 285/2/3 282/2/3 281/2/3
f 286/3/3 273/3/3 282/3/3
f 286/2/3 282/2/3 285/2/3
f 287/3/3 273/3/3 286/3/3
f 288/3/3 283/3/3 274/3/3
f 289/1/3 284/1/3 283/1/3
f 289/3/3 283/3/3 288/3/3
f 290/1/3 284/1/3 289/1/3
f 295/6/3 292/6/3 291/6/3
f 296/6/3 292/6/3 295/6/3
f 297/4/3 294/4/3 293/4/3
f 298/4/3 294/4/3 297/4/3
f 303/12/3 300/12/3 299/12/3
f 304/12/3 300/12/3 303/12/3
f 305/4/3 302/4/3 301/4/3
f 306/4/3 302/4/3 305/4/3
f 309/6/3 308/6/3 307/6/3
f 310/6/3 308/6/3 309/6/3
f 315/2/3 312/2/3 311/2/3
f 316/3/3 313/3/3 312/3/3
f 316/2/3 312/2/3 315/2/3
f 317/3/3 313/3/3 316/3/3
f 318/3/3 313/3/3 317/3/3
f 319/8/3 314/8/3 313/8/3
f 319/3/3 313/3/3 318/3/3
f 320/8/3 314/8/3 319/8/3
f 326/1/3 321/1/3 320/1/3
f 327/1/3 321/1/3 326/1/3
f 329/12/3 328/12/3 327/12/3
f 331/2/3 323/2/3 322/2/3
f 332/2/3 323/2/3 331/2/3
f 333/13/3 325/13/3 324/13/3
f 334/13/3 325/13/3 333/13/3
f 335/10/3 327/10/3 326/10/3
f 336/12/3 330/12/3 329/12/3
f 336/10/3 327/10/3 335/10/3
f 336/12/3 329/12/3 327/12/3
f 337/12/3 330/12/3 336/12/3
f 343/1/3 336/1/3 335/1/3
f 344/1/3 336/1/3 343/1/3
f 345/2/3 339/2/3 338/2/3
f 346/3/3 342/3/3 341/3/3
f 346/2/3 339/2/3 345/2/3
f 346/3/3 340/3/3 339/3/3
f 346/3/3 341/3/3 340/3/3
f 347/8/3 343/8/3 342/8/3
f 347/3/3 342/3/3 346/3/3
f 348/8/3 343/8/3 347/8/3
f 351/3/3 350/3/3 349/3/3
f 352/3/3 350/3/3 351/3/3
f 355/2/3 354/2/3 353/2/3
f 356/2/3 354/2/3 355/2/3
f 359/2/3 358/2/3 357/2/3
f 360/2/3 358/2/3 359/2/3
f 363/3/3 362/3/3 361/3/3
f 364/3/3 362/3/3 363/3/3
f 367/3/3 366/3/3 365/3/3
f 368/3/3 366/3/3 367/3/3
f 369/2/3 368/2/3 367/2/3
f 370/2/3 368/2/3 369/2/3
f 375/3/3 372/3/3 371/3/3
f 376/3/3 372/3/3 375/3/3
f 377/3/3 374/3/3 373/3/3
f 378/3/3 374/3/3 377/3/3
f 379/5/4 380/5/4 382/5/4
f 380/7/4 381/7/4 383/7/4
f 382/5/4 380/5/4 383/5/4
f 383/7/4 381/7/4 384/7/4
f 385/9/4 386/9/4 387/9/4
f 387/9/4 386/9/4 388/9/4
f 389/11/4 390/11/4 391/11/4
f 391/11/4 390/11/4 392/11/4
f 393/12/4 394/12/4 395/12/4
f 395/12/4 394/12/4 396/12/4
f 397/12/4 398/12/4 399/12/4
f 397/12/4 399/12/4 401/12/4
f 399/12/4 400/12/4 401/12/4
f 401/12/4 400/12/4 402/12/4
f 403/3/4 404/3/4 405/3/4
f 405/3/4 404/3/4 406/3/4
f 409/2/4 410/2/4 411/2/4
f 411/2/4 410/2/4 412/2/4
f 413/2/4 414/2/4 415/2/4
f 415/2/4 414/2/4 416/2/4
f 407/3/4 408/3/4 419/3/4
f 419/3/4 408/3/4 420/3/4
f 417/3/4 418/3/4 421/3/4
f 421/3/4 418/3/4 422/3/4
f 423/3/4 424/3/4 427/3/4
f 427/3/4 424/3/4 428/3/4
f 425/2/4 426/2/4 431/2/4
f 426/3/4 427/3/4 432/3/4
f 431/2/4 426/2/4 432/2/4
f 432/3/4 427/3/4 433/3/4
f 429/3/4 430/3/4 434/3/4
f 434/3/4 430/3/4 435/3/4
f 436/2/4 437/2/4 440/2/4
f 440/2/4 437/2/4 441/2/4
f 438/3/4 439/3/4 442/3/4
f 442/3/4 439/3/4 445/3/4
f 445/3/4 439/3/4 446/3/4
f 443/2/4 444/2/4 449/2/4
f 444/3/4 445/3/4 450/3/4
f 449/2/4 444/2/4 450/2/4
f 450/3/4 445/3/4 451/3/4
f 447/3/4 448/3/4 453/3/4
f 453/3/4 448/3/4 454/3/4
f 451/3/4 452/3/4 455/3/4
f 455/3/4 452/3/4 456/3/4
f 457/3/4 458/3/4 462/3/4
f 458/2/4 459/2/4 463/2/4
f 462/3/4 458/3/4 463/3/4
f 463/2/4 459/2/4 464/2/4
f 460/2/4 461/2/4 466/2/4
f 466/2/4 461/2/4 467/2/4
f 464/3/4 465/3/4 470/3/4
f 470/3/4 465/3/4 471/3/4
f 468/3/4 469/3/4 472/3/4
f 469/2/4 470/2/4 473/2/4
f 472/3/4 469/3/4 473/3/4
f 473/2/4 470/2/4 474/2/4
f 475/2/4 476/2/4 478/2/4
f 478/2/4 476/2/4 479/2/4
f 476/3/4 477/3/4 480/3/4
f 479/2/4 476/2/4 480/2/4
f 480/3/4 477/3/4 481/3/4
f 482/2/4 483/2/4 486/2/4
f 483/2/4 484/2/4 486/2/4
f 484/3/4 485/3/4 487/3/4
f 486/2/4 484/2/4 487/2/4
f 487/3/4 485/3/4 488/3/4
f 489/3/4 490/3/4 493/3/4
f 490/2/4 491/2/4 494/2/4
f 493/3/4 490/3/4 494/3/4
f 491/3/4 492/3/4 495/3/4
f 494/2/4 491/2/4 495/2/4
f 495/3/4 492/3/4 496/3/4
f 497/3/4 498/3/4 501/3/4
f 501/3/4 498/3/4 502/3/4
f 499/3/4 500/3/4 503/3/4
f 503/3/4 500/3/4 504/3/4
f 508/2/5 506/2/5 505/2/5
f 509/2/5 506/2/5 508/2/5
f 511/2/5 508/2/5 507/2/5
f 511/2/5 510/2/5 509/2/5
f 511/2/5 509/2/5 508/2/5
f 512/2/5 510/2/5 511/2/5
f 513/2/5 510/2/5 512/2/5
f 514/2/5 510/2/5 513/2/5
f 515/2/5 513/2/5 512/2/5
f 516/2/5 513/2/5 515/2/5
f 521/2/5 518/2/5 517/2/5
f 521/3/5 519/3/5 518/3/5
f 522/2/5 520/2/5 519/2/5
f 522/3/5 519/3/5 521/3/5
f 524/2/5 521/2/5 517/2/5
f 524/2/5 522/2/5 521/2/5
f 525/2/5 522/2/5 524/2/5
f 526/2/5 520/2/5 522/2/5
f 526/2/5 522/2/5 525/2/5
f 527/2/5 520/2/5 526/2/5
f 529/2/5 525/2/5 524/2/5
f 529/2/5 524/2/5 523/2/5
f 530/2/5 525/2/5 529/2/5
f 531/2/5 528/2/5 527/2/5
f 531/2/5 527/2/5 526/2/5
f 532/2/5 528/2/5 531/2/5
f 533/2/5 529/2/5 523/2/5
f 536/2/5 528/2/5 532/2/5
f 537/2/5 534/2/5 533/2/5
f 537/2/5 533/2/5 523/2/5
f 538/2/5 534/2/5 537/2/5
f 539/2/5 534/2/5 538/2/5
f 540/2/5 536/2/5 535/2/5
f 541/2/5 528/2/5 536/2/5
f 541/2/5 536/2/5 540/2/5
f 542/2/5 528/2/5 541/2/5
f 543/2/5 539/2/5 538/2/5
f 543/2/5 540/2/5 539/2/5
f 543/2/5 541/2/5 540/2/5
f 544/2/5 541/2/5 543/2/5
f 547/3/5 546/3/5 545/3/5
f 548/3/5 546/3/5 547/3/5
f 549/2/5 548/2/5 547/2/5
f 550/2/5 548/2/5 549/2/5
f 551/3/5 550/3/5 549/3/5
f 552/3/5 550/3/5 551/3/5
f 555/2/5 554/2/5 553/2/5
f 556/2/5 554/2/5 555/2/5
f 557/2/5 554/2/5 556/2/5
f 558/2/5 554/2/5 557/2/5
f 563/3/5 560/3/5 559/3/5
f 564/3/5 560/3/5 563/3/5
f 567/3/5 562/3/5 561/3/5
f 568/3/5 562/3/5 567/3/5
f 569/3/5 565/3/5 564/3/5
f 570/3/5 565/3/5 569/3/5
f 571/3/5 567/3/5 566/3/5
f 572/3/5 567/3/5 571/3/5
f 575/3/5 574/3/5 573/3/5
f 576/3/5 574/3/5 575/3/5
f 577/3/5 574/3/5 576/3/5
f 578/3/5 574/3/5 577/3/5
f 579/3/5 577/3/5 576/3/5
f 580/3/5 577/3/5 579/3/5
f 583/3/5 582/3/5 581/3/5
f 584/3/5 582/3/5 583/3/5
f 585/3/5 582/3/5 584/3/5
f 588/3/5 587/3/5 586/3/5
f 589/3/5 587/3/5 588/3/5
f 594/6/5 591/6/5 590/6/5
f 595/6/5 591/6/5 594/6/5
f 596/6/5 593/6/5 592/6/5
f 597/6/5 593/6/5 596/6/5
f 600/5/5 599/5/5 598/5/5
f 601/5/5 599/5/5 600/5/5
f 604/12/5 603/12/5 602/12/5
f 605/12/5 603/12/5 604/12/5
f 608/9/5 607/9/5 606/9/5
f 609/9/5 607/9/5 608/9/5
f 611/9/5 610/9/5 609/9/5
f 612/9/5 610/9/5 611/9/5
f 613/11/5 612/11/5 611/11/5
f 614/11/5 612/11/5 613/11/5
f 615/3/6 616/3/6 617/3/6
f 617/3/6 616/3/6 618/3/6
f 619/3/6 620/3/6 621/3/6
f 621/3/6 620/3/6 622/3/6
f 622/3/6 620/3/6 623/3/6
f 623/3/6 620/3/6 624/3/6
f 622/3/6 623/3/6 625/3/6
f 625/3/6 623/3/6 626/3/6
f 627/3/6 628/3/6 630/3/6
f 628/2/6 629/2/6 631/2/6
f 630/3/6 628/3/6 631/3/6
f 631/2/6 629/2/6 632/2/6
f 633/3/6 634/3/6 637/3/6
f 637/3/6 634/3/6 638/3/6
f 635/3/6 636/3/6 639/3/6
f 639/3/6 636/3/6 640/3/6
f 641/3/6 642/3/6 645/3/6
f 645/3/6 642/3/6 646/3/6
f 643/3/6 644/3/6 647/3/6
f 647/3/6 644/3/6 648/3/6
f 649/2/6 650/2/6 653/2/6
f 653/2/6 650/2/6 654/2/6
f 651/2/6 652/2/6 655/2/6
f 655/2/6 652/2/6 656/2/6
f 654/3/6 655/3/6 657/3/6
f 657/3/6 655/3/6 658/3/6
f 658/3/6 655/3/6 659/3/6
f 659/3/6 655/3/6 660/3/6
f 661/1/6 662/1/6 665/1/6
f 662/10/6 663/10/6 666/10/6
f 665/1/6 662/1/6 666/1/6
f 663/1/6 664/1/6 667/1/6
f 666/10/6 663/10/6 667/10/6
f 667/1/6 664/1/6 668/1/6
f 665/1/6 666/1/6 669/1/6
f 666/1/6 667/1/6 669/1/6
f 667/1/6 668/1/6 669/1/6
f 669/1/6 668/1/6 670/1/6
f 670/1/6 668/1/6 671/1/6
f 671/1/6 668/1/6 672/1/6
f 673/3/6 674/3/6 675/3/6
f 675/3/6 674/3/6 676/3/6
f 676/3/6 674/3/6 677/3/6
f 677/3/6 674/3/6 678/3/6
f 676/3/6 677/3/6 679/3/6
f 679/3/6 677/3/6 680/3/6
f 681/3/6 682/3/6 683/3/6
f 683/3/6 682/3/6 684/3/6
f 683/2/6 684/2/6 685/2/6
f 685/2/6 684/2/6 686/2/6
f 685/3/6 686/3/6 687/3/6
f 687/3/6 686/3/6 688/3/6
f 689/6/6 690/6/6 693/6/6
f 693/6/6 690/6/6 694/6/6
f 691/6/6 692/6/6 697/6/6
f 697/6/6 692/6/6 698/6/6
f 693/10/6 694/10/6 699/10/6
f 694/1/6 695/1/6 700/1/6
f 699/10/6 694/10/6 700/10/6
f 700/1/6 695/1/6 701/1/6
f 696/1/6 697/1/6 702/1/6
f 697/10/6 698/10/6 703/10/6
f 702/1/6 697/1/6 703/1/6
f 703/10/6 698/10/6 704/10/6
f 700/3/6 701/3/6 705/3/6
f 701/3/6 702/3/6 705/3/6
f 703/3/6 704/3/6 705/3/6
f 702/3/6 703/3/6 705/3/6
f 699/3/6 700/3/6 705/3/6
f 705/3/6 704/3/6 706/3/6
f 707/12/6 708/12/6 709/12/6
f 709/12/6 708/12/6 710/12/6
f 711/12/6 712/12/6 713/12/6
f 713/12/6 712/12/6 714/12/6
f 715/7/6 716/7/6 717/7/6
f 717/7/6 716/7/6 718/7/6
f 719/12/6 720/12/6 721/12/6
f 721/12/6 720/12/6 722/12/6
f 723/9/6 724/9/6 725/9/6
f 725/9/6 724/9/6 726/9/6
f 726/9/6 727/9/6 728/9/6
f 728/9/6 727/9/6 729/9/6
f 728/11/6 729/11/6 730/11/6
f 730/11/6 729/11/6 731/11/6
