# MagicaVoxel @ Ephtracy

# group
o 

# material
mtllib TestVoxelCat.mtl
usemtl palette

# normals
vn -1 0 0
vn 1 0 0
vn 0 0 1
vn 0 0 -1
vn 0 -1 0
vn 0 1 0

# texcoords
vt 0.00585938 0.5
vt 0.0800781 0.5
vt 0.396484 0.5
vt 0.958984 0.5
vt 0.994141 0.5

# verts
v -0.4 0 0.1
v -0.4 0 -0.1
v -0.4 0 -0.3
v -0.4 0.1 0.1
v -0.4 0.1 0
v -0.4 0.2 0
v -0.4 0.2 -0.1
v -0.4 0.3 -0.1
v -0.4 0.3 -0.3
v -0.4 0.7 0
v -0.4 0.7 -0.1
v -0.4 0.9 0
v -0.4 0.9 -0.1
v -0.3 0 0.5
v -0.3 0 0.4
v -0.3 0 0.1
v -0.3 0.1 0.5
v -0.3 0.1 0.4
v -0.3 0.1 0.1
v -0.3 0.1 0
v -0.3 0.2 0
v -0.3 0.2 -0.1
v -0.3 0.3 0.4
v -0.3 0.3 0.3
v -0.3 0.3 -0.1
v -0.3 0.3 -0.3
v -0.3 0.6 0.3
v -0.3 0.6 -0.3
v -0.3 0.9 0
v -0.3 0.9 -0.1
v -0.3 1 0
v -0.3 1 -0.1
v -0.2 0.6 0.2
v -0.2 0.6 -0.2
v -0.2 0.7 0.2
v -0.2 0.7 0.1
v -0.2 0.7 0
v -0.2 0.7 -0.1
v -0.2 0.8 0.2
v -0.2 0.8 0.1
v -0.2 0.9 0.2
v -0.2 0.9 0.1
v -0.2 1 0.2
v -0.2 1 0
v -0.2 1 -0.1
v -0.2 1 -0.2
v -0.1 0 -0.3
v -0.1 0 -0.5
v -0.1 0.1 -0.3
v -0.1 0.1 -0.4
v -0.1 0.2 -0.4
v -0.1 0.2 -0.5
v -0.1 0.5 -0.4
v -0.1 0.5 -0.5
v -0.1 0.6 0.4
v -0.1 0.6 0.3
v -0.1 0.6 0.2
v -0.1 0.7 0.4
v -0.1 0.7 0.3
v -0.1 0.7 0.2
v -0.1 0.8 0.4
v -0.1 0.8 0.3
v -0.1 0.8 0.2
v 0.1 0 0.5
v 0.1 0 0.4
v 0.1 0 0.3
v 0.1 0.1 0.5
v 0.1 0.1 0.4
v 0.1 0.3 0.4
v 0.1 0.3 0.3
v -0.1 0 0.5
v -0.1 0 0.4
v -0.1 0 0.3
v -0.1 0.1 0.5
v -0.1 0.1 0.4
v -0.1 0.3 0.4
v -0.1 0.3 0.3
v 0 0.4 -0.4
v 0 0.4 -0.5
v 0 0.5 -0.4
v 0 0.5 -0.5
v 0.1 0 -0.3
v 0.1 0 -0.5
v 0.1 0.1 -0.3
v 0.1 0.1 -0.4
v 0.1 0.2 -0.4
v 0.1 0.2 -0.5
v 0.1 0.4 -0.4
v 0.1 0.4 -0.5
v 0.1 0.6 0.4
v 0.1 0.6 0.3
v 0.1 0.6 0.2
v 0.1 0.7 0.4
v 0.1 0.7 0.3
v 0.1 0.7 0.2
v 0.1 0.8 0.4
v 0.1 0.8 0.3
v 0.1 0.8 0.2
v 0.2 0.6 0.2
v 0.2 0.6 -0.2
v 0.2 0.7 0.2
v 0.2 0.7 0.1
v 0.2 0.7 0
v 0.2 0.7 -0.1
v 0.2 0.8 0.2
v 0.2 0.8 0.1
v 0.2 0.9 0.2
v 0.2 0.9 0.1
v 0.2 1 0.2
v 0.2 1 0
v 0.2 1 -0.1
v 0.2 1 -0.2
v 0.3 0 0.5
v 0.3 0 0.4
v 0.3 0 0.1
v 0.3 0.1 0.5
v 0.3 0.1 0.4
v 0.3 0.1 0.1
v 0.3 0.1 0
v 0.3 0.2 0
v 0.3 0.2 -0.1
v 0.3 0.3 0.4
v 0.3 0.3 0.3
v 0.3 0.3 -0.1
v 0.3 0.3 -0.3
v 0.3 0.6 0.3
v 0.3 0.6 -0.3
v 0.3 0.9 0
v 0.3 0.9 -0.1
v 0.3 1 0
v 0.3 1 -0.1
v 0.4 0 0.1
v 0.4 0 -0.1
v 0.4 0 -0.3
v 0.4 0.1 0.1
v 0.4 0.1 0
v 0.4 0.2 0
v 0.4 0.2 -0.1
v 0.4 0.3 -0.1
v 0.4 0.3 -0.3
v 0.4 0.7 0
v 0.4 0.7 -0.1
v 0.4 0.9 0
v 0.4 0.9 -0.1
v -0.3 0 0.5
v -0.3 0.1 0.5
v -0.1 0 0.5
v -0.1 0.1 0.5
v 0.1 0 0.5
v 0.1 0.1 0.5
v 0.3 0 0.5
v 0.3 0.1 0.5
v -0.3 0.1 0.4
v -0.3 0.3 0.4
v -0.1 0.1 0.4
v -0.1 0.3 0.4
v -0.1 0.6 0.4
v -0.1 0.7 0.4
v -0.1 0.8 0.4
v 0.1 0.1 0.4
v 0.1 0.3 0.4
v 0.1 0.6 0.4
v 0.1 0.7 0.4
v 0.1 0.8 0.4
v 0.3 0.1 0.4
v 0.3 0.3 0.4
v -0.3 0.3 0.3
v -0.3 0.6 0.3
v -0.1 0 0.3
v -0.1 0.3 0.3
v -0.1 0.6 0.3
v 0.1 0 0.3
v 0.1 0.3 0.3
v 0.1 0.6 0.3
v 0.3 0.3 0.3
v 0.3 0.6 0.3
v -0.2 0.6 0.2
v -0.2 0.7 0.2
v -0.2 0.8 0.2
v -0.2 0.9 0.2
v -0.2 1 0.2
v -0.1 0.6 0.2
v -0.1 0.7 0.2
v -0.1 0.8 0.2
v -0.1 0.9 0.2
v 0.1 0.6 0.2
v 0.1 0.7 0.2
v 0.1 0.8 0.2
v 0.1 0.9 0.2
v 0.2 0.6 0.2
v 0.2 0.7 0.2
v 0.2 0.8 0.2
v 0.2 0.9 0.2
v 0.2 1 0.2
v -0.4 0 0.1
v -0.4 0.1 0.1
v -0.3 0 0.1
v -0.3 0.1 0.1
v 0.3 0 0.1
v 0.3 0.1 0.1
v 0.4 0 0.1
v 0.4 0.1 0.1
v -0.4 0.1 0
v -0.4 0.2 0
v -0.4 0.7 0
v -0.4 0.9 0
v -0.3 0.1 0
v -0.3 0.2 0
v -0.3 0.9 0
v -0.3 1 0
v -0.2 0.7 0
v -0.2 1 0
v 0.2 0.7 0
v 0.2 1 0
v 0.3 0.1 0
v 0.3 0.2 0
v 0.3 0.9 0
v 0.3 1 0
v 0.4 0.1 0
v 0.4 0.2 0
v 0.4 0.7 0
v 0.4 0.9 0
v -0.4 0.2 -0.1
v -0.4 0.3 -0.1
v -0.3 0.2 -0.1
v -0.3 0.3 -0.1
v 0.3 0.2 -0.1
v 0.3 0.3 -0.1
v 0.4 0.2 -0.1
v 0.4 0.3 -0.1
v -0.1 0.1 -0.4
v -0.1 0.2 -0.4
v -0.1 0.5 -0.4
v 0 0.4 -0.4
v 0 0.5 -0.4
v 0.1 0.1 -0.4
v 0.1 0.2 -0.4
v 0.1 0.4 -0.4
v -0.4 0.7 -0.1
v -0.4 0.9 -0.1
v -0.3 0.9 -0.1
v -0.3 1 -0.1
v -0.2 0.7 -0.1
v -0.2 1 -0.1
v 0.2 0.7 -0.1
v 0.2 1 -0.1
v 0.3 0.9 -0.1
v 0.3 1 -0.1
v 0.4 0.7 -0.1
v 0.4 0.9 -0.1
v -0.2 0.6 -0.2
v -0.2 1 -0.2
v 0.2 0.6 -0.2
v 0.2 1 -0.2
v -0.4 0 -0.3
v -0.4 0.3 -0.3
v -0.3 0.3 -0.3
v -0.3 0.6 -0.3
v -0.1 0 -0.3
v -0.1 0.1 -0.3
v 0.1 0 -0.3
v 0.1 0.1 -0.3
v 0.3 0.3 -0.3
v 0.3 0.6 -0.3
v 0.4 0 -0.3
v 0.4 0.3 -0.3
v -0.1 0 -0.5
v -0.1 0.2 -0.5
v -0.1 0.5 -0.5
v 0 0.4 -0.5
v 0 0.5 -0.5
v 0.1 0 -0.5
v 0.1 0.2 -0.5
v 0.1 0.4 -0.5
v -0.3 0 0.5
v -0.1 0 0.5
v 0.1 0 0.5
v 0.3 0 0.5
v -0.3 0 0.4
v -0.1 0 0.4
v 0.1 0 0.4
v 0.3 0 0.4
v -0.1 0 0.3
v 0.1 0 0.3
v -0.4 0 0.1
v -0.3 0 0.1
v 0.3 0 0.1
v 0.4 0 0.1
v -0.4 0 -0.1
v -0.3 0 -0.1
v 0.3 0 -0.1
v 0.4 0 -0.1
v -0.4 0 -0.3
v -0.1 0 -0.3
v 0.1 0 -0.3
v 0.4 0 -0.3
v -0.1 0 -0.5
v 0.1 0 -0.5
v -0.1 0.6 0.4
v 0.1 0.6 0.4
v -0.1 0.6 0.3
v 0.1 0.6 0.3
v -0.4 0.7 0
v -0.2 0.7 0
v 0.2 0.7 0
v 0.4 0.7 0
v -0.4 0.7 -0.1
v -0.2 0.7 -0.1
v 0.2 0.7 -0.1
v 0.4 0.7 -0.1
v -0.3 0.1 0.5
v -0.1 0.1 0.5
v 0.1 0.1 0.5
v 0.3 0.1 0.5
v -0.3 0.1 0.4
v -0.1 0.1 0.4
v 0.1 0.1 0.4
v 0.3 0.1 0.4
v -0.4 0.1 0.1
v -0.3 0.1 0.1
v 0.3 0.1 0.1
v 0.4 0.1 0.1
v -0.4 0.1 0
v -0.3 0.1 0
v 0.3 0.1 0
v 0.4 0.1 0
v -0.1 0.1 -0.3
v 0.1 0.1 -0.3
v -0.1 0.1 -0.4
v 0.1 0.1 -0.4
v -0.4 0.2 0
v -0.3 0.2 0
v 0.3 0.2 0
v 0.4 0.2 0
v -0.4 0.2 -0.1
v -0.3 0.2 -0.1
v 0.3 0.2 -0.1
v 0.4 0.2 -0.1
v -0.3 0.3 0.4
v -0.1 0.3 0.4
v 0.1 0.3 0.4
v 0.3 0.3 0.4
v -0.3 0.3 0.3
v -0.1 0.3 0.3
v 0.1 0.3 0.3
v 0.3 0.3 0.3
v -0.4 0.3 -0.1
v -0.3 0.3 -0.1
v 0.3 0.3 -0.1
v 0.4 0.3 -0.1
v -0.4 0.3 -0.3
v -0.3 0.3 -0.3
v 0.3 0.3 -0.3
v 0.4 0.3 -0.3
v 0 0.4 -0.4
v 0.1 0.4 -0.4
v 0 0.4 -0.5
v 0.1 0.4 -0.5
v -0.1 0.5 -0.4
v 0 0.5 -0.4
v -0.1 0.5 -0.5
v 0 0.5 -0.5
v -0.3 0.6 0.3
v -0.1 0.6 0.3
v 0.1 0.6 0.3
v 0.3 0.6 0.3
v -0.2 0.6 0.2
v -0.1 0.6 0.2
v 0.1 0.6 0.2
v 0.2 0.6 0.2
v -0.2 0.6 -0.2
v 0.2 0.6 -0.2
v -0.3 0.6 -0.3
v 0.3 0.6 -0.3
v -0.1 0.8 0.4
v 0.1 0.8 0.4
v -0.1 0.8 0.3
v 0.1 0.8 0.3
v -0.1 0.8 0.2
v 0.1 0.8 0.2
v -0.4 0.9 0
v -0.3 0.9 0
v 0.3 0.9 0
v 0.4 0.9 0
v -0.4 0.9 -0.1
v -0.3 0.9 -0.1
v 0.3 0.9 -0.1
v 0.4 0.9 -0.1
v -0.2 1 0.2
v 0.2 1 0.2
v -0.3 1 0
v -0.2 1 0
v 0.2 1 0
v 0.3 1 0
v -0.3 1 -0.1
v -0.2 1 -0.1
v 0.2 1 -0.1
v 0.3 1 -0.1
v -0.2 1 -0.2
v 0.2 1 -0.2

# faces
f 4/3/1 2/3/1 1/3/1
f 5/3/1 2/3/1 4/3/1
f 6/3/1 2/3/1 5/3/1
f 7/1/1 3/1/1 2/1/1
f 7/3/1 2/3/1 6/3/1
f 8/1/1 3/1/1 7/1/1
f 9/1/1 3/1/1 8/1/1
f 12/3/1 11/3/1 10/3/1
f 13/3/1 11/3/1 12/3/1
f 17/3/1 15/3/1 14/3/1
f 18/1/1 16/1/1 15/1/1
f 18/3/1 15/3/1 17/3/1
f 19/1/1 16/1/1 18/1/1
f 21/1/1 20/1/1 19/1/1
f 21/1/1 19/1/1 18/1/1
f 23/1/1 21/1/1 18/1/1
f 23/1/1 22/1/1 21/1/1
f 24/1/1 22/1/1 23/1/1
f 25/1/1 22/1/1 24/1/1
f 27/1/1 26/1/1 25/1/1
f 27/1/1 25/1/1 24/1/1
f 28/1/1 26/1/1 27/1/1
f 31/3/1 30/3/1 29/3/1
f 32/3/1 30/3/1 31/3/1
f 35/1/1 34/1/1 33/1/1
f 36/1/1 34/1/1 35/1/1
f 37/1/1 34/1/1 36/1/1
f 38/1/1 34/1/1 37/1/1
f 39/5/1 36/5/1 35/5/1
f 40/1/1 37/1/1 36/1/1
f 40/5/1 36/5/1 39/5/1
f 41/4/1 40/4/1 39/4/1
f 42/1/1 37/1/1 40/1/1
f 42/4/1 40/4/1 41/4/1
f 43/1/1 42/1/1 41/1/1
f 44/1/1 37/1/1 42/1/1
f 44/1/1 42/1/1 43/1/1
f 45/1/1 34/1/1 38/1/1
f 46/1/1 34/1/1 45/1/1
f 49/1/1 48/1/1 47/1/1
f 50/1/1 48/1/1 49/1/1
f 51/1/1 48/1/1 50/1/1
f 52/1/1 48/1/1 51/1/1
f 53/3/1 52/3/1 51/3/1
f 54/3/1 52/3/1 53/3/1
f 58/1/1 56/1/1 55/1/1
f 58/1/1 57/1/1 56/1/1
f 59/1/1 57/1/1 58/1/1
f 60/1/1 57/1/1 59/1/1
f 61/2/1 59/2/1 58/2/1
f 62/1/1 60/1/1 59/1/1
f 62/2/1 59/2/1 61/2/1
f 63/1/1 60/1/1 62/1/1
f 67/3/1 65/3/1 64/3/1
f 68/1/1 66/1/1 65/1/1
f 68/3/1 65/3/1 67/3/1
f 69/1/1 66/1/1 68/1/1
f 70/1/1 66/1/1 69/1/1
f 71/3/2 72/3/2 74/3/2
f 72/1/2 73/1/2 75/1/2
f 74/3/2 72/3/2 75/3/2
f 75/1/2 73/1/2 76/1/2
f 76/1/2 73/1/2 77/1/2
f 78/3/2 79/3/2 80/3/2
f 80/3/2 79/3/2 81/3/2
f 82/1/2 83/1/2 84/1/2
f 84/1/2 83/1/2 85/1/2
f 85/1/2 83/1/2 86/1/2
f 86/1/2 83/1/2 87/1/2
f 86/3/2 87/3/2 88/3/2
f 88/3/2 87/3/2 89/3/2
f 90/1/2 91/1/2 93/1/2
f 91/1/2 92/1/2 93/1/2
f 93/1/2 92/1/2 94/1/2
f 94/1/2 92/1/2 95/1/2
f 93/2/2 94/2/2 96/2/2
f 94/1/2 95/1/2 97/1/2
f 96/2/2 94/2/2 97/2/2
f 97/1/2 95/1/2 98/1/2
f 99/1/2 100/1/2 101/1/2
f 101/1/2 100/1/2 102/1/2
f 102/1/2 100/1/2 103/1/2
f 103/1/2 100/1/2 104/1/2
f 101/5/2 102/5/2 105/5/2
f 102/1/2 103/1/2 106/1/2
f 105/5/2 102/5/2 106/5/2
f 105/4/2 106/4/2 107/4/2
f 106/1/2 103/1/2 108/1/2
f 107/4/2 106/4/2 108/4/2
f 107/1/2 108/1/2 109/1/2
f 108/1/2 103/1/2 110/1/2
f 109/1/2 108/1/2 110/1/2
f 104/1/2 100/1/2 111/1/2
f 111/1/2 100/1/2 112/1/2
f 113/3/2 114/3/2 116/3/2
f 114/1/2 115/1/2 117/1/2
f 116/3/2 114/3/2 117/3/2
f 117/1/2 115/1/2 118/1/2
f 118/1/2 119/1/2 120/1/2
f 117/1/2 118/1/2 120/1/2
f 117/1/2 120/1/2 122/1/2
f 120/1/2 121/1/2 122/1/2
f 122/1/2 121/1/2 123/1/2
f 123/1/2 121/1/2 124/1/2
f 124/1/2 125/1/2 126/1/2
f 123/1/2 124/1/2 126/1/2
f 126/1/2 125/1/2 127/1/2
f 128/3/2 129/3/2 130/3/2
f 130/3/2 129/3/2 131/3/2
f 132/3/2 133/3/2 135/3/2
f 135/3/2 133/3/2 136/3/2
f 136/3/2 133/3/2 137/3/2
f 133/1/2 134/1/2 138/1/2
f 137/3/2 133/3/2 138/3/2
f 138/1/2 134/1/2 139/1/2
f 139/1/2 134/1/2 140/1/2
f 141/3/2 142/3/2 143/3/2
f 143/3/2 142/3/2 144/3/2
f 147/3/3 146/3/3 145/3/3
f 148/3/3 146/3/3 147/3/3
f 151/3/3 150/3/3 149/3/3
f 152/3/3 150/3/3 151/3/3
f 155/1/3 154/1/3 153/1/3
f 156/1/3 154/1/3 155/1/3
f 162/1/3 158/1/3 157/1/3
f 163/2/3 159/2/3 158/2/3
f 163/1/3 158/1/3 162/1/3
f 164/2/3 159/2/3 163/2/3
f 165/1/3 161/1/3 160/1/3
f 166/1/3 161/1/3 165/1/3
f 170/1/3 168/1/3 167/1/3
f 171/1/3 168/1/3 170/1/3
f 172/1/3 170/1/3 169/1/3
f 172/1/3 171/1/3 170/1/3
f 173/1/3 171/1/3 172/1/3
f 174/1/3 171/1/3 173/1/3
f 175/1/3 174/1/3 173/1/3
f 176/1/3 174/1/3 175/1/3
f 182/1/3 178/1/3 177/1/3
f 183/5/3 179/5/3 178/5/3
f 183/1/3 178/1/3 182/1/3
f 184/4/3 180/4/3 179/4/3
f 184/5/3 179/5/3 183/5/3
f 185/1/3 181/1/3 180/1/3
f 185/4/3 180/4/3 184/4/3
f 188/1/3 185/1/3 184/1/3
f 189/1/3 181/1/3 185/1/3
f 189/1/3 185/1/3 188/1/3
f 190/1/3 187/1/3 186/1/3
f 191/5/3 188/5/3 187/5/3
f 191/1/3 187/1/3 190/1/3
f 192/4/3 189/4/3 188/4/3
f 192/5/3 188/5/3 191/5/3
f 193/1/3 181/1/3 189/1/3
f 193/4/3 189/4/3 192/4/3
f 194/1/3 181/1/3 193/1/3
f 197/3/3 196/3/3 195/3/3
f 198/3/3 196/3/3 197/3/3
f 201/3/3 200/3/3 199/3/3
f 202/3/3 200/3/3 201/3/3
f 207/3/3 204/3/3 203/3/3
f 208/3/3 204/3/3 207/3/3
f 209/3/3 206/3/3 205/3/3
f 211/3/3 210/3/3 209/3/3
f 211/3/3 209/3/3 205/3/3
f 212/3/3 210/3/3 211/3/3
f 217/3/3 214/3/3 213/3/3
f 218/3/3 214/3/3 217/3/3
f 219/3/3 216/3/3 215/3/3
f 220/3/3 216/3/3 219/3/3
f 221/3/3 217/3/3 213/3/3
f 222/3/3 217/3/3 221/3/3
f 225/1/3 224/1/3 223/1/3
f 226/1/3 224/1/3 225/1/3
f 229/1/3 228/1/3 227/1/3
f 230/1/3 228/1/3 229/1/3
f 234/3/3 233/3/3 232/3/3
f 235/3/3 233/3/3 234/3/3
f 236/1/3 232/1/3 231/1/3
f 237/3/3 234/3/3 232/3/3
f 237/1/3 232/1/3 236/1/3
f 238/3/3 234/3/3 237/3/3
f 239/3/4 240/3/4 241/3/4
f 239/3/4 241/3/4 243/3/4
f 241/3/4 242/3/4 243/3/4
f 243/3/4 242/3/4 244/3/4
f 245/3/4 246/3/4 247/3/4
f 247/3/4 246/3/4 248/3/4
f 245/3/4 247/3/4 249/3/4
f 249/3/4 247/3/4 250/3/4
f 251/1/4 252/1/4 253/1/4
f 253/1/4 252/1/4 254/1/4
f 255/1/4 256/1/4 257/1/4
f 255/1/4 257/1/4 259/1/4
f 257/1/4 258/1/4 259/1/4
f 259/1/4 258/1/4 260/1/4
f 260/1/4 258/1/4 262/1/4
f 262/1/4 258/1/4 263/1/4
f 261/1/4 262/1/4 263/1/4
f 263/1/4 258/1/4 264/1/4
f 261/1/4 263/1/4 265/1/4
f 265/1/4 263/1/4 266/1/4
f 268/3/4 269/3/4 270/3/4
f 270/3/4 269/3/4 271/3/4
f 267/1/4 268/1/4 272/1/4
f 268/3/4 270/3/4 273/3/4
f 272/1/4 268/1/4 273/1/4
f 273/3/4 270/3/4 274/3/4
f 279/3/5 276/3/5 275/3/5
f 280/3/5 276/3/5 279/3/5
f 281/3/5 278/3/5 277/3/5
f 282/3/5 278/3/5 281/3/5
f 283/1/5 280/1/5 279/1/5
f 284/1/5 282/1/5 281/1/5
f 286/1/5 283/1/5 279/1/5
f 286/1/5 284/1/5 283/1/5
f 287/1/5 282/1/5 284/1/5
f 287/1/5 284/1/5 286/1/5
f 289/3/5 286/3/5 285/3/5
f 290/1/5 287/1/5 286/1/5
f 290/3/5 286/3/5 289/3/5
f 291/3/5 288/3/5 287/3/5
f 291/1/5 287/1/5 290/1/5
f 292/3/5 288/3/5 291/3/5
f 293/1/5 290/1/5 289/1/5
f 293/1/5 291/1/5 290/1/5
f 293/1/5 292/1/5 291/1/5
f 294/1/5 292/1/5 293/1/5
f 295/1/5 292/1/5 294/1/5
f 296/1/5 292/1/5 295/1/5
f 297/1/5 295/1/5 294/1/5
f 298/1/5 295/1/5 297/1/5
f 301/1/5 300/1/5 299/1/5
f 302/1/5 300/1/5 301/1/5
f 307/3/5 304/3/5 303/3/5
f 308/3/5 304/3/5 307/3/5
f 309/3/5 306/3/5 305/3/5
f 310/3/5 306/3/5 309/3/5
f 311/3/6 312/3/6 315/3/6
f 315/3/6 312/3/6 316/3/6
f 313/3/6 314/3/6 317/3/6
f 317/3/6 314/3/6 318/3/6
f 319/3/6 320/3/6 323/3/6
f 323/3/6 320/3/6 324/3/6
f 321/3/6 322/3/6 325/3/6
f 325/3/6 322/3/6 326/3/6
f 327/1/6 328/1/6 329/1/6
f 329/1/6 328/1/6 330/1/6
f 331/3/6 332/3/6 335/3/6
f 335/3/6 332/3/6 336/3/6
f 333/3/6 334/3/6 337/3/6
f 337/3/6 334/3/6 338/3/6
f 339/1/6 340/1/6 343/1/6
f 343/1/6 340/1/6 344/1/6
f 341/1/6 342/1/6 345/1/6
f 345/1/6 342/1/6 346/1/6
f 347/1/6 348/1/6 351/1/6
f 351/1/6 348/1/6 352/1/6
f 349/1/6 350/1/6 353/1/6
f 353/1/6 350/1/6 354/1/6
f 355/3/6 356/3/6 357/3/6
f 357/3/6 356/3/6 358/3/6
f 359/3/6 360/3/6 361/3/6
f 361/3/6 360/3/6 362/3/6
f 363/1/6 364/1/6 367/1/6
f 367/1/6 364/1/6 368/1/6
f 365/1/6 366/1/6 369/1/6
f 369/1/6 366/1/6 370/1/6
f 363/1/6 367/1/6 371/1/6
f 370/1/6 366/1/6 372/1/6
f 363/1/6 371/1/6 373/1/6
f 371/1/6 372/1/6 373/1/6
f 372/1/6 366/1/6 374/1/6
f 373/1/6 372/1/6 374/1/6
f 375/2/6 376/2/6 377/2/6
f 377/2/6 376/2/6 378/2/6
f 377/1/6 378/1/6 379/1/6
f 379/1/6 378/1/6 380/1/6
f 381/3/6 382/3/6 385/3/6
f 385/3/6 382/3/6 386/3/6
f 383/3/6 384/3/6 387/3/6
f 387/3/6 384/3/6 388/3/6
f 389/1/6 390/1/6 392/1/6
f 392/1/6 390/1/6 393/1/6
f 391/3/6 392/3/6 395/3/6
f 392/1/6 393/1/6 396/1/6
f 395/3/6 392/3/6 396/3/6
f 393/3/6 394/3/6 397/3/6
f 396/1/6 393/1/6 397/1/6
f 397/3/6 394/3/6 398/3/6
f 396/1/6 397/1/6 399/1/6
f 399/1/6 397/1/6 400/1/6
