# MagicaVoxel @ Ephtracy

# group
o 

# material
mtllib YellowCoralMeduim-0.mtl
usemtl palette

# normals
vn -1 0 0
vn 1 0 0
vn 0 0 1
vn 0 0 -1
vn 0 -1 0
vn 0 1 0

# texcoords
vt 0.142578 0.5
vt 0.146484 0.5
vt 0.150391 0.5
vt 0.154297 0.5

# verts
v -0.4 0.2 -1.4
v -0.4 0.2 -1.5
v -0.4 0.3 -1.4
v -0.4 0.3 -1.5
v -0.4 0.4 -1.3
v -0.4 0.4 -1.4
v -0.4 0.4 -1.5
v -0.4 0.5 -1.2
v -0.4 0.5 -1.3
v -0.4 0.5 -1.4
v -0.4 0.6 -1.2
v -0.4 0.6 -1.3
v -0.3 0.4 -1.2
v -0.3 0.4 -1.3
v -0.3 0.4 -1.5
v -0.3 0.4 -1.6
v -0.3 0.5 -1.2
v -0.3 0.5 -1.3
v -0.3 0.5 -1.5
v -0.3 0.5 -1.6
v -0.2 0.1 -1.3
v -0.2 0.1 -1.4
v -0.2 0.2 -1.2
v -0.2 0.2 -1.3
v -0.2 0.2 -1.4
v -0.2 0.2 -1.5
v -0.2 0.2 -1.6
v -0.2 0.3 -1.2
v -0.2 0.3 -1.3
v -0.2 0.3 -1.5
v -0.2 0.3 -1.6
v -0.2 0.4 -1.1
v -0.2 0.4 -1.2
v -0.2 0.4 -1.3
v -0.2 0.4 -1.5
v -0.2 0.4 -1.6
v -0.2 0.5 -1.1
v -0.2 0.5 -1.2
v -0.2 0.5 -1.5
v -0.2 0.5 -1.6
v -0.2 0.5 -1.7
v -0.2 0.6 -1.5
v -0.2 0.6 -1.6
v -0.2 0.6 -1.7
v -0.2 0.7 -1.5
v -0.2 0.7 -1.6
v -0.1 0 -1.3
v -0.1 0 -1.4
v -0.1 0.1 -1.3
v -0.1 0.1 -1.4
v -0.1 0.1 -1.5
v -0.1 0.2 -1.3
v -0.1 0.2 -1.4
v -0.1 0.2 -1.5
v -0.1 0.3 -1.1
v -0.1 0.3 -1.2
v -0.1 0.3 -1.3
v -0.1 0.3 -1.4
v -0.1 0.3 -1.6
v -0.1 0.3 -1.7
v -0.1 0.4 -1
v -0.1 0.4 -1.1
v -0.1 0.4 -1.2
v -0.1 0.4 -1.3
v -0.1 0.4 -1.4
v -0.1 0.4 -1.6
v -0.1 0.4 -1.7
v -0.1 0.5 -0.9
v -0.1 0.5 -1
v -0.1 0.5 -1.1
v -0.1 0.5 -1.2
v -0.1 0.5 -1.3
v -0.1 0.5 -1.4
v -0.1 0.5 -1.5
v -0.1 0.6 -0.9
v -0.1 0.6 -1
v -0.1 0.6 -1.1
v -0.1 0.6 -1.2
v -0.1 0.6 -1.3
v -0.1 0.6 -1.4
v -0.1 0.6 -1.5
v -0.1 0.7 -1.1
v -0.1 0.7 -1.2
v 0 0.2 -1.5
v 0 0.2 -1.6
v 0 0.3 -1
v 0 0.3 -1.1
v 0 0.3 -1.5
v 0 0.3 -1.6
v 0 0.4 -1
v 0 0.4 -1.1
v 0.1 0.2 -1.2
v 0.1 0.2 -1.3
v 0.1 0.3 -1.2
v 0.1 0.3 -1.3
v 0.1 0.3 -1.4
v 0.1 0.3 -1.5
v 0.1 0.4 -1.3
v 0.1 0.4 -1.4
v 0.1 0.4 -1.5
v 0.1 0.4 -1.6
v 0.1 0.4 -1.7
v 0.1 0.5 -1.3
v 0.1 0.5 -1.4
v 0.1 0.5 -1.6
v 0.1 0.5 -1.7
v 0.2 0.3 -1.2
v 0.2 0.3 -1.3
v 0.2 0.4 -1.1
v 0.2 0.4 -1.2
v 0.2 0.4 -1.3
v 0.2 0.5 -1.1
v 0.2 0.5 -1.2
v 0.2 0.5 -1.3
v -0.3 0.3 -1.4
v -0.3 0.3 -1.5
v -0.3 0.4 -1.3
v -0.3 0.4 -1.4
v -0.3 0.4 -1.5
v -0.3 0.5 -1.2
v -0.3 0.5 -1.3
v -0.3 0.5 -1.4
v -0.3 0.6 -1.2
v -0.3 0.6 -1.3
v -0.2 0.2 -1.4
v -0.2 0.2 -1.5
v -0.2 0.3 -1.4
v -0.2 0.3 -1.5
v -0.2 0.4 -1.2
v -0.2 0.4 -1.3
v -0.2 0.4 -1.5
v -0.2 0.4 -1.6
v -0.2 0.5 -1.2
v -0.2 0.5 -1.3
v -0.2 0.5 -1.5
v -0.2 0.5 -1.6
v -0.1 0.2 -1.5
v -0.1 0.2 -1.6
v -0.1 0.3 -1.2
v -0.1 0.3 -1.3
v -0.1 0.3 -1.5
v -0.1 0.3 -1.6
v -0.1 0.4 -1.1
v -0.1 0.4 -1.2
v -0.1 0.4 -1.3
v -0.1 0.4 -1.5
v -0.1 0.4 -1.6
v -0.1 0.5 -1.1
v -0.1 0.5 -1.2
v -0.1 0.5 -1.5
v -0.1 0.5 -1.6
v -0.1 0.5 -1.7
v -0.1 0.6 -1.5
v -0.1 0.6 -1.6
v -0.1 0.6 -1.7
v -0.1 0.7 -1.5
v -0.1 0.7 -1.6
v 0 0 -1.3
v 0 0 -1.4
v 0 0.1 -1.4
v 0 0.2 -1.2
v 0 0.2 -1.3
v 0 0.2 -1.4
v 0 0.3 -1.1
v 0 0.3 -1.2
v 0 0.3 -1.3
v 0 0.4 -1
v 0 0.4 -1.1
v 0 0.4 -1.2
v 0 0.4 -1.3
v 0 0.4 -1.4
v 0 0.5 -0.9
v 0 0.5 -1
v 0 0.5 -1.2
v 0 0.5 -1.3
v 0 0.5 -1.4
v 0 0.5 -1.5
v 0 0.6 -0.9
v 0 0.6 -1
v 0 0.6 -1.1
v 0 0.6 -1.2
v 0 0.6 -1.3
v 0 0.6 -1.4
v 0 0.6 -1.5
v 0 0.7 -1.1
v 0 0.7 -1.2
v 0.1 0.1 -1.4
v 0.1 0.1 -1.5
v 0.1 0.2 -1.3
v 0.1 0.2 -1.4
v 0.1 0.2 -1.5
v 0.1 0.2 -1.6
v 0.1 0.3 -1
v 0.1 0.3 -1.1
v 0.1 0.3 -1.3
v 0.1 0.3 -1.4
v 0.1 0.3 -1.5
v 0.1 0.3 -1.6
v 0.1 0.3 -1.7
v 0.1 0.4 -1
v 0.1 0.4 -1.1
v 0.1 0.4 -1.6
v 0.1 0.4 -1.7
v 0.2 0.2 -1.2
v 0.2 0.2 -1.3
v 0.2 0.3 -1.2
v 0.2 0.3 -1.3
v 0.2 0.3 -1.4
v 0.2 0.3 -1.5
v 0.2 0.4 -1.3
v 0.2 0.4 -1.4
v 0.2 0.4 -1.5
v 0.2 0.4 -1.6
v 0.2 0.4 -1.7
v 0.2 0.5 -1.3
v 0.2 0.5 -1.4
v 0.2 0.5 -1.6
v 0.2 0.5 -1.7
v 0.3 0.3 -1.2
v 0.3 0.3 -1.3
v 0.3 0.4 -1.1
v 0.3 0.4 -1.2
v 0.3 0.5 -1.1
v 0.3 0.5 -1.2
v 0.3 0.5 -1.3
v -0.1 0.5 -0.9
v -0.1 0.6 -0.9
v 0 0.5 -0.9
v 0 0.6 -0.9
v -0.1 0.4 -1
v -0.1 0.5 -1
v 0 0.3 -1
v 0 0.4 -1
v 0 0.5 -1
v 0.1 0.3 -1
v 0.1 0.4 -1
v -0.2 0.4 -1.1
v -0.2 0.5 -1.1
v -0.1 0.3 -1.1
v -0.1 0.4 -1.1
v -0.1 0.5 -1.1
v -0.1 0.6 -1.1
v -0.1 0.7 -1.1
v 0 0.3 -1.1
v 0 0.4 -1.1
v 0 0.6 -1.1
v 0 0.7 -1.1
v 0.2 0.4 -1.1
v 0.2 0.5 -1.1
v 0.3 0.4 -1.1
v 0.3 0.5 -1.1
v -0.4 0.5 -1.2
v -0.4 0.6 -1.2
v -0.3 0.4 -1.2
v -0.3 0.5 -1.2
v -0.3 0.6 -1.2
v -0.2 0.2 -1.2
v -0.2 0.3 -1.2
v -0.2 0.4 -1.2
v -0.2 0.5 -1.2
v -0.1 0.2 -1.2
v -0.1 0.3 -1.2
v -0.1 0.4 -1.2
v -0.1 0.5 -1.2
v -0.1 0.6 -1.2
v 0 0.2 -1.2
v 0 0.3 -1.2
v 0 0.5 -1.2
v 0 0.6 -1.2
v 0.1 0.2 -1.2
v 0.1 0.3 -1.2
v 0.2 0.2 -1.2
v 0.2 0.3 -1.2
v 0.2 0.4 -1.2
v 0.3 0.3 -1.2
v 0.3 0.4 -1.2
v -0.4 0.4 -1.3
v -0.4 0.5 -1.3
v -0.3 0.4 -1.3
v -0.3 0.5 -1.3
v -0.2 0.1 -1.3
v -0.2 0.2 -1.3
v -0.1 0 -1.3
v -0.1 0.1 -1.3
v -0.1 0.2 -1.3
v -0.1 0.4 -1.3
v -0.1 0.5 -1.3
v 0 0 -1.3
v 0 0.2 -1.3
v 0 0.3 -1.3
v 0 0.4 -1.3
v 0 0.5 -1.3
v 0.1 0.2 -1.3
v 0.1 0.3 -1.3
v 0.1 0.4 -1.3
v 0.1 0.5 -1.3
v 0.2 0.4 -1.3
v 0.2 0.5 -1.3
v -0.4 0.2 -1.4
v -0.4 0.3 -1.4
v -0.4 0.4 -1.4
v -0.3 0.2 -1.4
v -0.3 0.3 -1.4
v -0.3 0.4 -1.4
v -0.2 0.2 -1.4
v -0.2 0.3 -1.4
v -0.1 0.5 -1.4
v -0.1 0.6 -1.4
v 0 0.1 -1.4
v 0 0.2 -1.4
v 0 0.5 -1.4
v 0 0.6 -1.4
v 0.1 0.1 -1.4
v 0.1 0.2 -1.4
v 0.1 0.3 -1.4
v 0.1 0.4 -1.4
v 0.2 0.3 -1.4
v 0.2 0.4 -1.4
v -0.3 0.4 -1.5
v -0.3 0.5 -1.5
v -0.2 0.2 -1.5
v -0.2 0.3 -1.5
v -0.2 0.4 -1.5
v -0.2 0.5 -1.5
v -0.2 0.6 -1.5
v -0.2 0.7 -1.5
v -0.1 0.2 -1.5
v -0.1 0.3 -1.5
v -0.1 0.4 -1.5
v -0.1 0.5 -1.5
v -0.1 0.6 -1.5
v -0.1 0.7 -1.5
v 0 0.2 -1.5
v 0 0.3 -1.5
v 0.1 0.2 -1.5
v 0.1 0.3 -1.5
v -0.1 0.3 -1.6
v -0.1 0.4 -1.6
v 0 0.3 -1.6
v 0 0.4 -1.6
v 0.1 0.3 -1.6
v 0.1 0.4 -1.6
v 0.1 0.5 -1.6
v 0.2 0.4 -1.6
v 0.2 0.5 -1.6
v -0.1 0.4 -1.1
v -0.1 0.5 -1.1
v -0.1 0.6 -1.1
v 0 0.3 -1.1
v 0 0.4 -1.1
v 0 0.6 -1.1
v 0.1 0.3 -1.1
v 0.1 0.4 -1.1
v -0.2 0.4 -1.2
v -0.2 0.5 -1.2
v -0.1 0.3 -1.2
v -0.1 0.4 -1.2
v -0.1 0.5 -1.2
v -0.1 0.6 -1.2
v -0.1 0.7 -1.2
v 0 0.3 -1.2
v 0 0.4 -1.2
v 0 0.6 -1.2
v 0 0.7 -1.2
v -0.4 0.5 -1.3
v -0.4 0.6 -1.3
v -0.3 0.4 -1.3
v -0.3 0.5 -1.3
v -0.3 0.6 -1.3
v -0.2 0.2 -1.3
v -0.2 0.3 -1.3
v -0.2 0.4 -1.3
v -0.2 0.5 -1.3
v -0.1 0.2 -1.3
v -0.1 0.3 -1.3
v -0.1 0.4 -1.3
v -0.1 0.5 -1.3
v -0.1 0.6 -1.3
v 0 0.5 -1.3
v 0 0.6 -1.3
v 0.1 0.2 -1.3
v 0.1 0.3 -1.3
v 0.2 0.2 -1.3
v 0.2 0.3 -1.3
v 0.2 0.4 -1.3
v 0.2 0.5 -1.3
v 0.3 0.3 -1.3
v 0.3 0.5 -1.3
v -0.4 0.4 -1.4
v -0.4 0.5 -1.4
v -0.3 0.4 -1.4
v -0.3 0.5 -1.4
v -0.2 0.1 -1.4
v -0.2 0.2 -1.4
v -0.1 0 -1.4
v -0.1 0.1 -1.4
v -0.1 0.2 -1.4
v -0.1 0.3 -1.4
v -0.1 0.4 -1.4
v -0.1 0.5 -1.4
v 0 0 -1.4
v 0 0.1 -1.4
v 0 0.2 -1.4
v 0 0.3 -1.4
v 0 0.4 -1.4
v 0 0.5 -1.4
v 0.1 0.2 -1.4
v 0.1 0.3 -1.4
v 0.1 0.4 -1.4
v 0.1 0.5 -1.4
v 0.2 0.4 -1.4
v 0.2 0.5 -1.4
v -0.4 0.2 -1.5
v -0.4 0.3 -1.5
v -0.4 0.4 -1.5
v -0.3 0.2 -1.5
v -0.3 0.3 -1.5
v -0.3 0.4 -1.5
v -0.2 0.2 -1.5
v -0.2 0.3 -1.5
v -0.1 0.1 -1.5
v -0.1 0.2 -1.5
v -0.1 0.5 -1.5
v -0.1 0.6 -1.5
v 0 0.1 -1.5
v 0 0.2 -1.5
v 0 0.5 -1.5
v 0 0.6 -1.5
v 0.1 0.1 -1.5
v 0.1 0.2 -1.5
v 0.1 0.3 -1.5
v 0.1 0.4 -1.5
v 0.2 0.3 -1.5
v 0.2 0.4 -1.5
v -0.3 0.4 -1.6
v -0.3 0.5 -1.6
v -0.2 0.2 -1.6
v -0.2 0.3 -1.6
v -0.2 0.4 -1.6
v -0.2 0.5 -1.6
v -0.2 0.6 -1.6
v -0.2 0.7 -1.6
v -0.1 0.2 -1.6
v -0.1 0.3 -1.6
v -0.1 0.4 -1.6
v -0.1 0.6 -1.6
v -0.1 0.7 -1.6
v 0 0.2 -1.6
v 0 0.3 -1.6
v 0.1 0.2 -1.6
v 0.1 0.3 -1.6
v -0.2 0.5 -1.7
v -0.2 0.6 -1.7
v -0.1 0.3 -1.7
v -0.1 0.4 -1.7
v -0.1 0.5 -1.7
v -0.1 0.6 -1.7
v 0 0.3 -1.7
v 0 0.4 -1.7
v 0.1 0.3 -1.7
v 0.1 0.4 -1.7
v 0.1 0.5 -1.7
v 0.2 0.4 -1.7
v 0.2 0.5 -1.7
v -0.1 0 -1.3
v 0 0 -1.3
v -0.1 0 -1.4
v 0 0 -1.4
v -0.2 0.1 -1.3
v -0.1 0.1 -1.3
v -0.2 0.1 -1.4
v -0.1 0.1 -1.4
v 0 0.1 -1.4
v 0.1 0.1 -1.4
v -0.1 0.1 -1.5
v 0 0.1 -1.5
v 0.1 0.1 -1.5
v -0.2 0.2 -1.2
v -0.1 0.2 -1.2
v 0 0.2 -1.2
v 0.1 0.2 -1.2
v 0.2 0.2 -1.2
v -0.2 0.2 -1.3
v -0.1 0.2 -1.3
v 0 0.2 -1.3
v 0.1 0.2 -1.3
v 0.2 0.2 -1.3
v -0.4 0.2 -1.4
v -0.3 0.2 -1.4
v -0.2 0.2 -1.4
v 0 0.2 -1.4
v 0.1 0.2 -1.4
v -0.4 0.2 -1.5
v -0.3 0.2 -1.5
v -0.2 0.2 -1.5
v -0.1 0.2 -1.5
v 0 0.2 -1.5
v 0.1 0.2 -1.5
v -0.2 0.2 -1.6
v -0.1 0.2 -1.6
v 0 0.2 -1.6
v 0.1 0.2 -1.6
v 0 0.3 -1
v 0.1 0.3 -1
v -0.1 0.3 -1.1
v 0 0.3 -1.1
v 0.1 0.3 -1.1
v -0.1 0.3 -1.2
v 0 0.3 -1.2
v 0.2 0.3 -1.2
v 0.3 0.3 -1.2
v 0.2 0.3 -1.3
v 0.3 0.3 -1.3
v 0.1 0.3 -1.4
v 0.2 0.3 -1.4
v 0.1 0.3 -1.5
v 0.2 0.3 -1.5
v -0.1 0.3 -1.6
v 0 0.3 -1.6
v 0.1 0.3 -1.6
v -0.1 0.3 -1.7
v 0 0.3 -1.7
v 0.1 0.3 -1.7
v -0.1 0.4 -1
v 0 0.4 -1
v -0.2 0.4 -1.1
v -0.1 0.4 -1.1
v 0 0.4 -1.1
v 0.2 0.4 -1.1
v 0.3 0.4 -1.1
v -0.3 0.4 -1.2
v -0.2 0.4 -1.2
v -0.1 0.4 -1.2
v 0.2 0.4 -1.2
v 0.3 0.4 -1.2
v -0.4 0.4 -1.3
v -0.3 0.4 -1.3
v -0.2 0.4 -1.3
v -0.1 0.4 -1.3
v 0 0.4 -1.3
v 0.1 0.4 -1.3
v 0.2 0.4 -1.3
v -0.4 0.4 -1.4
v -0.3 0.4 -1.4
v -0.1 0.4 -1.4
v 0 0.4 -1.4
v 0.1 0.4 -1.4
v 0.2 0.4 -1.4
v -0.3 0.4 -1.5
v -0.2 0.4 -1.5
v -0.3 0.4 -1.6
v -0.2 0.4 -1.6
v 0.1 0.4 -1.6
v 0.2 0.4 -1.6
v 0.1 0.4 -1.7
v 0.2 0.4 -1.7
v -0.1 0.5 -0.9
v 0 0.5 -0.9
v -0.1 0.5 -1
v 0 0.5 -1
v -0.4 0.5 -1.2
v -0.3 0.5 -1.2
v -0.1 0.5 -1.2
v 0 0.5 -1.2
v -0.4 0.5 -1.3
v -0.3 0.5 -1.3
v -0.1 0.5 -1.3
v 0 0.5 -1.3
v -0.1 0.5 -1.4
v 0 0.5 -1.4
v -0.2 0.5 -1.5
v -0.1 0.5 -1.5
v 0 0.5 -1.5
v -0.2 0.5 -1.6
v -0.1 0.5 -1.6
v -0.2 0.5 -1.7
v -0.1 0.5 -1.7
v -0.1 0.6 -1.1
v 0 0.6 -1.1
v -0.1 0.6 -1.2
v 0 0.6 -1.2
v -0.2 0.2 -1.3
v -0.1 0.2 -1.3
v -0.2 0.2 -1.4
v -0.1 0.2 -1.4
v 0 0.2 -1.4
v 0.1 0.2 -1.4
v -0.1 0.2 -1.5
v 0 0.2 -1.5
v 0.1 0.2 -1.5
v -0.1 0.3 -1.2
v 0 0.3 -1.2
v 0.1 0.3 -1.2
v 0.2 0.3 -1.2
v -0.1 0.3 -1.3
v 0 0.3 -1.3
v 0.1 0.3 -1.3
v 0.2 0.3 -1.3
v -0.3 0.3 -1.4
v -0.2 0.3 -1.4
v -0.1 0.3 -1.4
v 0 0.3 -1.4
v 0.1 0.3 -1.4
v -0.3 0.3 -1.5
v -0.2 0.3 -1.5
v 0 0.3 -1.5
v 0.1 0.3 -1.5
v 0 0.3 -1.6
v 0.1 0.3 -1.6
v 0 0.4 -1
v 0.1 0.4 -1
v -0.1 0.4 -1.1
v 0 0.4 -1.1
v 0.1 0.4 -1.1
v -0.2 0.4 -1.2
v -0.1 0.4 -1.2
v 0 0.4 -1.2
v -0.2 0.4 -1.3
v -0.1 0.4 -1.3
v -0.4 0.4 -1.4
v -0.3 0.4 -1.4
v 0.1 0.4 -1.4
v 0.2 0.4 -1.4
v -0.4 0.4 -1.5
v -0.3 0.4 -1.5
v -0.2 0.4 -1.5
v -0.1 0.4 -1.5
v 0.1 0.4 -1.5
v 0.2 0.4 -1.5
v -0.2 0.4 -1.6
v -0.1 0.4 -1.6
v 0 0.4 -1.6
v 0.1 0.4 -1.6
v -0.1 0.4 -1.7
v 0 0.4 -1.7
v 0.1 0.4 -1.7
v -0.2 0.5 -1.1
v -0.1 0.5 -1.1
v 0.2 0.5 -1.1
v 0.3 0.5 -1.1
v -0.3 0.5 -1.2
v -0.2 0.5 -1.2
v -0.1 0.5 -1.2
v 0.2 0.5 -1.2
v 0.3 0.5 -1.2
v -0.4 0.5 -1.3
v -0.3 0.5 -1.3
v -0.2 0.5 -1.3
v -0.1 0.5 -1.3
v 0 0.5 -1.3
v 0.1 0.5 -1.3
v 0.2 0.5 -1.3
v 0.3 0.5 -1.3
v -0.4 0.5 -1.4
v -0.3 0.5 -1.4
v -0.1 0.5 -1.4
v 0 0.5 -1.4
v 0.1 0.5 -1.4
v 0.2 0.5 -1.4
v -0.3 0.5 -1.5
v -0.2 0.5 -1.5
v -0.3 0.5 -1.6
v -0.2 0.5 -1.6
v 0.1 0.5 -1.6
v 0.2 0.5 -1.6
v 0.1 0.5 -1.7
v 0.2 0.5 -1.7
v -0.1 0.6 -0.9
v 0 0.6 -0.9
v -0.1 0.6 -1
v 0 0.6 -1
v -0.1 0.6 -1.1
v 0 0.6 -1.1
v -0.4 0.6 -1.2
v -0.3 0.6 -1.2
v -0.1 0.6 -1.2
v 0 0.6 -1.2
v -0.4 0.6 -1.3
v -0.3 0.6 -1.3
v -0.1 0.6 -1.3
v 0 0.6 -1.3
v -0.1 0.6 -1.4
v 0 0.6 -1.4
v -0.1 0.6 -1.5
v 0 0.6 -1.5
v -0.2 0.6 -1.6
v -0.1 0.6 -1.6
v -0.2 0.6 -1.7
v -0.1 0.6 -1.7
v -0.1 0.7 -1.1
v 0 0.7 -1.1
v -0.1 0.7 -1.2
v 0 0.7 -1.2
v -0.2 0.7 -1.5
v -0.1 0.7 -1.5
v -0.2 0.7 -1.6
v -0.1 0.7 -1.6

# faces
f 3/2/1 2/2/1 1/2/1
f 4/2/1 2/2/1 3/2/1
f 6/1/1 4/1/1 3/1/1
f 7/1/1 4/1/1 6/1/1
f 9/1/1 6/1/1 5/1/1
f 10/1/1 6/1/1 9/1/1
f 11/1/1 9/1/1 8/1/1
f 12/1/1 9/1/1 11/1/1
f 17/2/1 14/2/1 13/2/1
f 18/2/1 14/2/1 17/2/1
f 19/1/1 16/1/1 15/1/1
f 20/1/1 16/1/1 19/1/1
f 24/3/1 22/3/1 21/3/1
f 25/3/1 22/3/1 24/3/1
f 28/3/1 24/3/1 23/3/1
f 29/3/1 24/3/1 28/3/1
f 30/3/1 27/3/1 26/3/1
f 31/3/1 27/3/1 30/3/1
f 33/2/1 29/2/1 28/2/1
f 34/2/1 29/2/1 33/2/1
f 35/2/1 31/2/1 30/2/1
f 36/2/1 31/2/1 35/2/1
f 37/2/1 33/2/1 32/2/1
f 38/2/1 33/2/1 37/2/1
f 42/2/1 40/2/1 39/2/1
f 43/1/1 41/1/1 40/1/1
f 43/2/1 40/2/1 42/2/1
f 44/1/1 41/1/1 43/1/1
f 45/1/1 43/1/1 42/1/1
f 46/1/1 43/1/1 45/1/1
f 49/4/1 48/4/1 47/4/1
f 50/4/1 48/4/1 49/4/1
f 53/4/1 51/4/1 50/4/1
f 54/4/1 51/4/1 53/4/1
f 57/3/1 53/3/1 52/3/1
f 58/3/1 53/3/1 57/3/1
f 62/3/1 56/3/1 55/3/1
f 63/3/1 56/3/1 62/3/1
f 66/2/1 60/2/1 59/2/1
f 67/2/1 60/2/1 66/2/1
f 69/2/1 62/2/1 61/2/1
f 70/2/1 62/2/1 69/2/1
f 72/3/1 65/3/1 64/3/1
f 73/3/1 65/3/1 72/3/1
f 75/1/1 69/1/1 68/1/1
f 76/2/1 70/2/1 69/2/1
f 76/1/1 69/1/1 75/1/1
f 77/2/1 70/2/1 76/2/1
f 78/1/1 72/1/1 71/1/1
f 79/1/1 72/1/1 78/1/1
f 80/1/1 74/1/1 73/1/1
f 81/1/1 74/1/1 80/1/1
f 82/1/1 78/1/1 77/1/1
f 83/1/1 78/1/1 82/1/1
f 88/3/1 85/3/1 84/3/1
f 89/3/1 85/3/1 88/3/1
f 90/1/1 87/1/1 86/1/1
f 91/1/1 87/1/1 90/1/1
f 94/3/1 93/3/1 92/3/1
f 95/3/1 93/3/1 94/3/1
f 99/1/1 97/1/1 96/1/1
f 100/1/1 97/1/1 99/1/1
f 103/2/1 99/2/1 98/2/1
f 104/2/1 99/2/1 103/2/1
f 105/1/1 102/1/1 101/1/1
f 106/1/1 102/1/1 105/1/1
f 110/2/1 108/2/1 107/2/1
f 111/2/1 108/2/1 110/2/1
f 112/1/1 110/1/1 109/1/1
f 113/2/1 111/2/1 110/2/1
f 113/1/1 110/1/1 112/1/1
f 114/2/1 111/2/1 113/2/1
f 115/1/2 116/1/2 118/1/2
f 118/1/2 116/1/2 119/1/2
f 117/1/2 118/1/2 121/1/2
f 121/1/2 118/1/2 122/1/2
f 120/1/2 121/1/2 123/1/2
f 123/1/2 121/1/2 124/1/2
f 125/3/2 126/3/2 127/3/2
f 127/3/2 126/3/2 128/3/2
f 129/2/2 130/2/2 133/2/2
f 133/2/2 130/2/2 134/2/2
f 131/1/2 132/1/2 135/1/2
f 135/1/2 132/1/2 136/1/2
f 137/3/2 138/3/2 141/3/2
f 141/3/2 138/3/2 142/3/2
f 139/2/2 140/2/2 144/2/2
f 144/2/2 140/2/2 145/2/2
f 141/2/2 142/2/2 146/2/2
f 146/2/2 142/2/2 147/2/2
f 143/2/2 144/2/2 148/2/2
f 148/2/2 144/2/2 149/2/2
f 150/2/2 151/2/2 153/2/2
f 151/1/2 152/1/2 154/1/2
f 153/2/2 151/2/2 154/2/2
f 154/1/2 152/1/2 155/1/2
f 153/1/2 154/1/2 156/1/2
f 156/1/2 154/1/2 157/1/2
f 158/4/2 159/4/2 160/4/2
f 158/4/2 160/4/2 162/4/2
f 162/4/2 160/4/2 163/4/2
f 161/4/2 162/4/2 165/4/2
f 165/4/2 162/4/2 166/4/2
f 164/3/2 165/3/2 168/3/2
f 168/3/2 165/3/2 169/3/2
f 167/2/2 168/2/2 173/2/2
f 170/3/2 171/3/2 175/3/2
f 175/3/2 171/3/2 176/3/2
f 172/1/2 173/1/2 178/1/2
f 173/2/2 168/2/2 179/2/2
f 178/1/2 173/1/2 179/1/2
f 179/2/2 168/2/2 180/2/2
f 174/1/2 175/1/2 181/1/2
f 181/1/2 175/1/2 182/1/2
f 176/1/2 177/1/2 183/1/2
f 183/1/2 177/1/2 184/1/2
f 180/1/2 181/1/2 185/1/2
f 185/1/2 181/1/2 186/1/2
f 187/3/2 188/3/2 190/3/2
f 190/3/2 188/3/2 191/3/2
f 189/4/2 190/4/2 195/4/2
f 195/4/2 190/4/2 196/4/2
f 191/3/2 192/3/2 197/3/2
f 197/3/2 192/3/2 198/3/2
f 193/1/2 194/1/2 200/1/2
f 200/1/2 194/1/2 201/1/2
f 198/1/2 199/1/2 202/1/2
f 202/1/2 199/1/2 203/1/2
f 204/3/2 205/3/2 206/3/2
f 206/3/2 205/3/2 207/3/2
f 208/1/2 209/1/2 211/1/2
f 211/1/2 209/1/2 212/1/2
f 210/2/2 211/2/2 215/2/2
f 215/2/2 211/2/2 216/2/2
f 213/1/2 214/1/2 217/1/2
f 217/1/2 214/1/2 218/1/2
f 219/2/2 220/2/2 222/2/2
f 221/1/2 222/1/2 223/1/2
f 222/2/2 220/2/2 224/2/2
f 223/1/2 222/1/2 224/1/2
f 224/2/2 220/2/2 225/2/2
f 228/1/3 227/1/3 226/1/3
f 229/1/3 227/1/3 228/1/3
f 233/2/3 231/2/3 230/2/3
f 234/2/3 231/2/3 233/2/3
f 235/1/3 233/1/3 232/1/3
f 236/1/3 233/1/3 235/1/3
f 240/2/3 238/2/3 237/2/3
f 241/2/3 238/2/3 240/2/3
f 244/3/3 240/3/3 239/3/3
f 245/3/3 240/3/3 244/3/3
f 246/1/3 243/1/3 242/1/3
f 247/1/3 243/1/3 246/1/3
f 250/1/3 249/1/3 248/1/3
f 251/1/3 249/1/3 250/1/3
f 255/1/3 253/1/3 252/1/3
f 256/1/3 253/1/3 255/1/3
f 259/2/3 255/2/3 254/2/3
f 260/2/3 255/2/3 259/2/3
f 261/3/3 258/3/3 257/3/3
f 262/2/3 259/2/3 258/2/3
f 262/3/3 258/3/3 261/3/3
f 263/2/3 259/2/3 262/2/3
f 266/4/3 262/4/3 261/4/3
f 267/4/3 262/4/3 266/4/3
f 268/1/3 265/1/3 264/1/3
f 269/1/3 265/1/3 268/1/3
f 272/3/3 271/3/3 270/3/3
f 273/3/3 271/3/3 272/3/3
f 275/2/3 274/2/3 273/2/3
f 276/2/3 274/2/3 275/2/3
f 279/1/3 278/1/3 277/1/3
f 280/1/3 278/1/3 279/1/3
f 284/3/3 282/3/3 281/3/3
f 285/3/3 282/3/3 284/3/3
f 288/4/3 284/4/3 283/4/3
f 288/4/3 285/4/3 284/4/3
f 289/4/3 285/4/3 288/4/3
f 291/3/3 287/3/3 286/3/3
f 292/3/3 287/3/3 291/3/3
f 293/4/3 290/4/3 289/4/3
f 294/4/3 290/4/3 293/4/3
f 297/2/3 296/2/3 295/2/3
f 298/2/3 296/2/3 297/2/3
f 302/2/3 300/2/3 299/2/3
f 303/1/3 301/1/3 300/1/3
f 303/2/3 300/2/3 302/2/3
f 304/1/3 301/1/3 303/1/3
f 305/3/3 303/3/3 302/3/3
f 306/3/3 303/3/3 305/3/3
f 311/1/3 308/1/3 307/1/3
f 312/1/3 308/1/3 311/1/3
f 313/3/3 310/3/3 309/3/3
f 314/3/3 310/3/3 313/3/3
f 317/1/3 316/1/3 315/1/3
f 318/1/3 316/1/3 317/1/3
f 323/1/3 320/1/3 319/1/3
f 324/1/3 320/1/3 323/1/3
f 327/3/3 322/3/3 321/3/3
f 328/2/3 323/2/3 322/2/3
f 328/3/3 322/3/3 327/3/3
f 329/2/3 323/2/3 328/2/3
f 330/2/3 325/2/3 324/2/3
f 331/1/3 326/1/3 325/1/3
f 331/2/3 325/2/3 330/2/3
f 332/1/3 326/1/3 331/1/3
f 335/3/3 334/3/3 333/3/3
f 336/3/3 334/3/3 335/3/3
f 339/2/3 338/2/3 337/2/3
f 340/2/3 338/2/3 339/2/3
f 341/1/3 340/1/3 339/1/3
f 342/1/3 340/1/3 341/1/3
f 344/1/3 343/1/3 342/1/3
f 345/1/3 343/1/3 344/1/3
f 346/2/4 347/2/4 350/2/4
f 347/2/4 348/2/4 350/2/4
f 350/2/4 348/2/4 351/2/4
f 349/1/4 350/1/4 352/1/4
f 352/1/4 350/1/4 353/1/4
f 354/2/4 355/2/4 357/2/4
f 357/2/4 355/2/4 358/2/4
f 356/3/4 357/3/4 361/3/4
f 361/3/4 357/3/4 362/3/4
f 359/1/4 360/1/4 363/1/4
f 363/1/4 360/1/4 364/1/4
f 365/1/4 366/1/4 368/1/4
f 368/1/4 366/1/4 369/1/4
f 367/2/4 368/2/4 372/2/4
f 372/2/4 368/2/4 373/2/4
f 370/3/4 371/3/4 374/3/4
f 371/2/4 372/2/4 375/2/4
f 374/3/4 371/3/4 375/3/4
f 375/2/4 372/2/4 376/2/4
f 377/1/4 378/1/4 379/1/4
f 379/1/4 378/1/4 380/1/4
f 381/3/4 382/3/4 383/3/4
f 383/3/4 382/3/4 384/3/4
f 385/2/4 386/2/4 387/2/4
f 384/2/4 385/2/4 387/2/4
f 387/2/4 386/2/4 388/2/4
f 389/1/4 390/1/4 391/1/4
f 391/1/4 390/1/4 392/1/4
f 393/3/4 394/3/4 396/3/4
f 396/3/4 394/3/4 397/3/4
f 395/4/4 396/4/4 401/4/4
f 401/4/4 396/4/4 402/4/4
f 397/3/4 398/3/4 403/3/4
f 403/3/4 398/3/4 404/3/4
f 399/3/4 400/3/4 405/3/4
f 405/3/4 400/3/4 406/3/4
f 403/4/4 404/4/4 407/4/4
f 407/4/4 404/4/4 408/4/4
f 409/2/4 410/2/4 411/2/4
f 411/2/4 410/2/4 412/2/4
f 413/2/4 414/2/4 416/2/4
f 414/1/4 415/1/4 417/1/4
f 416/2/4 414/2/4 417/2/4
f 417/1/4 415/1/4 418/1/4
f 416/3/4 417/3/4 419/3/4
f 419/3/4 417/3/4 420/3/4
f 421/4/4 422/4/4 425/4/4
f 425/4/4 422/4/4 426/4/4
f 423/1/4 424/1/4 427/1/4
f 427/1/4 424/1/4 428/1/4
f 425/3/4 426/3/4 429/3/4
f 429/3/4 426/3/4 430/3/4
f 431/1/4 432/1/4 433/1/4
f 433/1/4 432/1/4 434/1/4
f 435/1/4 436/1/4 439/1/4
f 439/1/4 436/1/4 440/1/4
f 437/3/4 438/3/4 443/3/4
f 438/2/4 439/2/4 444/2/4
f 443/3/4 438/3/4 444/3/4
f 444/2/4 439/2/4 445/2/4
f 441/1/4 442/1/4 446/1/4
f 446/1/4 442/1/4 447/1/4
f 448/3/4 449/3/4 450/3/4
f 450/3/4 449/3/4 451/3/4
f 452/1/4 453/1/4 456/1/4
f 456/1/4 453/1/4 457/1/4
f 454/2/4 455/2/4 458/2/4
f 458/2/4 455/2/4 459/2/4
f 458/1/4 459/1/4 460/1/4
f 460/1/4 459/1/4 461/1/4
f 461/1/4 462/1/4 463/1/4
f 463/1/4 462/1/4 464/1/4
f 467/4/5 466/4/5 465/4/5
f 468/4/5 466/4/5 467/4/5
f 471/3/5 470/3/5 469/3/5
f 472/3/5 470/3/5 471/3/5
f 475/4/5 473/4/5 472/4/5
f 476/3/5 474/3/5 473/3/5
f 476/4/5 473/4/5 475/4/5
f 477/3/5 474/3/5 476/3/5
f 483/3/5 479/3/5 478/3/5
f 484/4/5 480/4/5 479/4/5
f 484/3/5 479/3/5 483/3/5
f 485/4/5 480/4/5 484/4/5
f 486/3/5 482/3/5 481/3/5
f 487/3/5 482/3/5 486/3/5
f 491/4/5 486/4/5 485/4/5
f 492/4/5 486/4/5 491/4/5
f 493/2/5 489/2/5 488/2/5
f 494/3/5 490/3/5 489/3/5
f 494/2/5 489/2/5 493/2/5
f 495/3/5 490/3/5 494/3/5
f 499/3/5 496/3/5 495/3/5
f 500/3/5 496/3/5 499/3/5
f 501/3/5 498/3/5 497/3/5
f 502/3/5 498/3/5 501/3/5
f 506/1/5 504/1/5 503/1/5
f 507/1/5 504/1/5 506/1/5
f 508/3/5 506/3/5 505/3/5
f 509/3/5 506/3/5 508/3/5
f 512/2/5 511/2/5 510/2/5
f 513/2/5 511/2/5 512/2/5
f 516/1/5 515/1/5 514/1/5
f 517/1/5 515/1/5 516/1/5
f 521/2/5 519/2/5 518/2/5
f 522/1/5 520/1/5 519/1/5
f 522/2/5 519/2/5 521/2/5
f 523/1/5 520/1/5 522/1/5
f 527/2/5 525/2/5 524/2/5
f 528/2/5 525/2/5 527/2/5
f 532/2/5 527/2/5 526/2/5
f 533/2/5 527/2/5 532/2/5
f 534/1/5 530/1/5 529/1/5
f 535/1/5 530/1/5 534/1/5
f 537/2/5 532/2/5 531/2/5
f 538/2/5 532/2/5 537/2/5
f 543/1/5 537/1/5 536/1/5
f 544/1/5 537/1/5 543/1/5
f 545/3/5 540/3/5 539/3/5
f 546/3/5 540/3/5 545/3/5
f 547/2/5 542/2/5 541/2/5
f 548/2/5 542/2/5 547/2/5
f 551/1/5 550/1/5 549/1/5
f 552/1/5 550/1/5 551/1/5
f 555/1/5 554/1/5 553/1/5
f 556/1/5 554/1/5 555/1/5
f 559/1/5 558/1/5 557/1/5
f 560/1/5 558/1/5 559/1/5
f 565/1/5 562/1/5 561/1/5
f 566/1/5 562/1/5 565/1/5
f 567/1/5 564/1/5 563/1/5
f 568/1/5 564/1/5 567/1/5
f 572/1/5 570/1/5 569/1/5
f 573/1/5 570/1/5 572/1/5
f 574/2/5 572/2/5 571/2/5
f 575/2/5 572/2/5 574/2/5
f 576/1/5 575/1/5 574/1/5
f 577/1/5 575/1/5 576/1/5
f 580/1/5 579/1/5 578/1/5
f 581/1/5 579/1/5 580/1/5
f 582/3/6 583/3/6 584/3/6
f 584/3/6 583/3/6 585/3/6
f 585/4/6 586/4/6 588/4/6
f 586/3/6 587/3/6 589/3/6
f 588/4/6 586/4/6 589/4/6
f 589/3/6 587/3/6 590/3/6
f 591/4/6 592/4/6 595/4/6
f 595/4/6 592/4/6 596/4/6
f 593/3/6 594/3/6 597/3/6
f 597/3/6 594/3/6 598/3/6
f 595/3/6 596/3/6 601/3/6
f 596/4/6 597/4/6 602/4/6
f 601/3/6 596/3/6 602/3/6
f 602/4/6 597/4/6 603/4/6
f 599/3/6 600/3/6 604/3/6
f 604/3/6 600/3/6 605/3/6
f 606/3/6 607/3/6 608/3/6
f 608/3/6 607/3/6 609/3/6
f 610/1/6 611/1/6 613/1/6
f 613/1/6 611/1/6 614/1/6
f 612/3/6 613/3/6 616/3/6
f 616/3/6 613/3/6 617/3/6
f 615/2/6 616/2/6 618/2/6
f 618/2/6 616/2/6 619/2/6
f 620/1/6 621/1/6 624/1/6
f 624/1/6 621/1/6 625/1/6
f 622/1/6 623/1/6 628/1/6
f 628/1/6 623/1/6 629/1/6
f 626/2/6 627/2/6 630/2/6
f 630/2/6 627/2/6 631/2/6
f 631/2/6 632/2/6 634/2/6
f 632/1/6 633/1/6 635/1/6
f 634/2/6 632/2/6 635/2/6
f 635/1/6 633/1/6 636/1/6
f 637/2/6 638/2/6 642/2/6
f 642/2/6 638/2/6 643/2/6
f 639/1/6 640/1/6 644/1/6
f 644/1/6 640/1/6 645/1/6
f 641/2/6 642/2/6 647/2/6
f 647/2/6 642/2/6 648/2/6
f 644/2/6 645/2/6 652/2/6
f 652/2/6 645/2/6 653/2/6
f 646/1/6 647/1/6 654/1/6
f 654/1/6 647/1/6 655/1/6
f 649/3/6 650/3/6 656/3/6
f 656/3/6 650/3/6 657/3/6
f 651/2/6 652/2/6 658/2/6
f 658/2/6 652/2/6 659/2/6
f 660/1/6 661/1/6 662/1/6
f 662/1/6 661/1/6 663/1/6
f 664/1/6 665/1/6 666/1/6
f 666/1/6 665/1/6 667/1/6
f 668/1/6 669/1/6 670/1/6
f 670/1/6 669/1/6 671/1/6
f 670/2/6 671/2/6 672/2/6
f 672/2/6 671/2/6 673/2/6
f 674/1/6 675/1/6 678/1/6
f 678/1/6 675/1/6 679/1/6
f 676/1/6 677/1/6 680/1/6
f 680/1/6 677/1/6 681/1/6
f 682/1/6 683/1/6 684/1/6
f 684/1/6 683/1/6 685/1/6
f 686/1/6 687/1/6 688/1/6
f 688/1/6 687/1/6 689/1/6
f 690/1/6 691/1/6 692/1/6
f 692/1/6 691/1/6 693/1/6
f 694/1/6 695/1/6 696/1/6
f 696/1/6 695/1/6 697/1/6
